<?xml version="1.0" standalone="no"?>
<!DOCTYPE svg PUBLIC "-//W3C//DTD SVG 20010904//EN"
 "http://www.w3.org/TR/2001/REC-SVG-20010904/DTD/svg10.dtd">
<svg version="1.0" xmlns="http://www.w3.org/2000/svg"
 width="1024.000000pt" height="1024.000000pt" viewBox="0 0 1024.000000 1024.000000"
 preserveAspectRatio="xMidYMid meet">

<g transform="translate(0.000000,1024.000000) scale(0.100000,-0.100000)"
fill="#000000" stroke="none">
<path d="M5580 9109 c-41 -4 -93 -13 -115 -18 -22 -6 -62 -11 -90 -11 -64 0
-221 -28 -260 -45 -16 -8 -64 -24 -105 -36 -41 -12 -93 -30 -115 -40 -22 -10
-72 -29 -111 -42 -68 -23 -73 -23 -110 -8 -22 9 -51 24 -64 34 -13 9 -30 17
-36 17 -7 0 -14 5 -16 10 -5 16 -198 48 -233 38 -39 -10 -245 -184 -245 -206
0 -19 36 -46 44 -33 11 18 105 22 133 7 51 -28 79 -55 66 -64 -10 -6 -9 -13 3
-30 22 -32 120 -102 141 -102 10 0 59 23 108 50 50 28 137 74 195 102 58 29
137 70 175 93 178 103 511 193 617 165 110 -29 282 -169 379 -309 24 -35 55
-79 68 -97 21 -30 23 -38 12 -62 -7 -15 -11 -28 -9 -29 1 -1 -7 -12 -19 -25
-13 -13 -28 -39 -34 -58 -14 -37 -48 -94 -76 -125 -10 -11 -23 -36 -30 -55
-10 -29 -10 -36 2 -43 19 -10 19 -21 1 -60 -7 -18 -20 -48 -27 -67 -15 -39
-48 -76 -58 -64 -3 5 -34 10 -69 11 -89 3 -174 27 -280 79 -99 49 -156 104
-134 126 17 17 15 44 -5 81 -9 18 -16 36 -15 41 6 18 -19 61 -45 81 -14 11
-44 38 -67 60 -23 22 -55 45 -71 50 -21 7 -33 21 -41 43 -12 37 -11 36 -56 18
-37 -15 -78 -6 -78 18 0 21 -20 25 -65 11 -48 -14 -65 -10 -65 16 0 27 -7 24
-71 -24 -126 -94 -148 -112 -148 -122 -1 -13 128 -165 139 -165 5 0 49 -48 98
-107 116 -139 327 -346 377 -370 22 -10 49 -34 61 -53 13 -19 34 -49 48 -66
14 -17 30 -43 35 -57 6 -14 21 -44 35 -66 l25 -40 155 0 c222 0 261 -7 343
-66 50 -36 60 -55 37 -72 -34 -25 -85 -26 -188 -5 -173 37 -349 51 -325 28 2
-3 45 -10 94 -16 50 -6 135 -20 190 -30 55 -10 123 -21 150 -25 115 -15 121
-24 104 -169 -6 -55 -16 -106 -21 -113 -12 -15 -36 -7 -178 55 -155 69 -309
125 -325 118 -7 -2 -16 -20 -20 -38 -4 -18 -11 -35 -14 -38 -17 -12 -42 -124
-51 -230 -17 -190 -38 -320 -66 -415 -14 -50 -31 -106 -36 -125 -81 -294 -301
-696 -545 -1000 -55 -69 -112 -138 -127 -153 -14 -15 -26 -31 -26 -34 0 -6
-61 -66 -99 -98 -28 -23 -21 -8 19 45 27 35 60 93 43 75 -5 -5 -26 -33 -46
-61 -51 -71 -372 -377 -494 -471 -267 -205 -493 -337 -735 -428 -173 -65 -265
-95 -272 -87 -3 3 45 22 107 42 320 106 515 209 816 432 20 15 59 43 88 63 49
33 72 55 58 55 -3 0 -17 -7 -30 -16 -41 -27 -28 -11 38 46 34 30 53 43 42 30
-11 -14 -26 -31 -34 -37 -8 -7 -12 -16 -8 -19 9 -9 218 192 278 266 26 33 55
75 64 93 8 17 25 43 36 57 l20 25 -11 -25 c-11 -24 -11 -24 5 -5 9 11 45 67
81 125 36 58 84 133 107 167 65 95 139 219 187 315 25 47 47 85 50 83 6 -3 48
81 134 266 41 88 130 345 152 439 56 238 64 303 74 565 16 428 14 541 -10 591
-16 31 -25 41 -39 37 -12 -3 -28 8 -49 35 -17 21 -28 42 -25 46 4 4 -1 4 -12
0 -11 -4 -17 -4 -13 0 10 12 -35 54 -51 48 -10 -4 -13 -1 -8 11 4 12 2 14 -10
10 -13 -5 -15 -2 -10 11 4 10 3 15 -3 11 -6 -3 -10 -2 -10 3 0 5 -21 31 -46
57 -25 27 -54 60 -65 73 -10 14 -22 22 -26 18 -4 -4 -3 -10 2 -14 6 -4 20 -27
32 -52 13 -25 27 -52 33 -60 16 -24 75 -157 118 -265 54 -138 87 -241 118
-370 25 -104 26 -120 22 -305 -6 -221 -22 -314 -88 -500 -57 -160 -170 -401
-170 -363 0 6 5 24 10 38 8 22 8 26 -4 22 -8 -3 -19 5 -27 21 -8 15 -18 30
-24 34 -5 4 -1 8 10 8 l20 1 -20 12 c-11 6 -23 12 -27 12 -5 0 -8 5 -9 10 0 6
-10 20 -21 32 -12 13 -18 26 -15 30 4 3 7 1 7 -5 0 -7 8 -12 18 -12 13 0 14 2
3 9 -7 5 -10 14 -6 21 4 7 1 10 -11 8 -13 -2 -20 6 -25 30 -4 18 -4 43 -1 54
5 20 4 20 -21 3 -24 -15 -27 -15 -33 -2 -3 9 -3 20 0 25 3 5 -7 7 -22 4 -26
-4 -26 -4 -7 12 20 16 20 16 -5 37 -17 15 -21 23 -12 26 10 4 9 9 -4 24 -9 10
-21 16 -25 13 -5 -3 -9 -1 -9 5 0 5 5 11 11 13 6 2 -10 18 -35 36 -25 18 -48
37 -51 41 -7 13 39 0 47 -13 5 -7 8 -5 8 5 0 16 -44 60 -54 53 -3 -2 -2 1 3 8
7 7 6 18 0 30 -13 24 -2 41 22 35 33 -9 21 3 -21 19 -37 15 -54 34 -30 34 6 0
10 5 10 11 0 7 -8 6 -22 -3 -24 -15 -48 -14 -48 3 0 6 5 7 10 4 6 -3 10 -1 10
5 0 6 4 9 9 6 4 -3 17 1 27 9 18 14 18 14 -6 16 -14 1 -33 1 -42 0 -10 -1 -18
3 -18 9 0 6 5 8 10 5 6 -3 10 1 10 9 0 9 -5 16 -11 16 -8 0 -7 6 2 16 12 14
11 16 -6 12 -14 -2 -19 -10 -16 -23 2 -11 4 -105 4 -210 0 -173 -5 -226 -39
-467 -7 -51 -27 -68 -23 -20 2 35 -10 72 -25 72 -6 0 -4 5 4 10 13 9 13 12 -2
21 -22 12 -24 33 -3 26 8 -4 17 -2 20 2 3 5 -1 11 -9 14 -9 4 -13 15 -10 29 2
13 2 17 -2 11 -7 -15 -44 -17 -44 -3 0 6 6 10 14 10 16 0 29 27 16 35 -5 3
-11 1 -15 -5 -12 -19 -25 -10 -19 14 8 34 -13 42 -36 14 l-19 -23 6 23 c3 12
9 22 14 22 5 0 9 10 9 23 -1 20 -2 21 -14 4 -13 -16 -14 -16 -19 4 -5 17 -9
20 -19 12 -7 -6 -22 -7 -32 -3 -15 5 -16 9 -7 15 8 4 16 2 21 -5 6 -9 11 -7
20 10 6 12 9 24 6 28 -3 3 -6 0 -6 -7 0 -8 -5 -9 -18 -2 -13 7 -22 7 -30 -1
-12 -12 -42 39 -34 61 3 8 0 11 -6 7 -6 -3 -13 -2 -17 4 -4 6 -11 8 -16 4 -5
-3 -16 11 -25 31 -14 35 -42 44 -36 12 1 -8 -2 -18 -8 -22 -13 -8 -13 38 0 51
12 12 2 47 -11 39 -4 -3 -6 -12 -2 -20 3 -9 0 -22 -7 -30 -13 -16 -50 -21 -50
-7 0 16 13 22 25 12 12 -10 14 12 6 63 -2 12 -31 8 -31 -5 0 -9 -3 -9 -12 0
-8 8 -8 15 2 27 13 15 3 21 -15 7 -14 -10 -12 -36 4 -56 8 -9 10 -20 6 -24 -4
-4 -10 -2 -12 5 -2 6 -15 23 -29 38 -26 28 -24 45 4 45 19 1 93 39 76 40 -6 0
-30 -7 -53 -15 -38 -13 -42 -13 -50 4 -14 26 5 41 54 42 29 0 35 3 21 8 -14 5
-16 10 -8 15 18 11 15 23 -7 29 -14 3 -17 0 -14 -14 4 -13 0 -19 -10 -19 -8 0
-23 -3 -32 -6 -11 -5 -16 -2 -15 7 6 37 1 39 -42 22 -24 -9 -46 -21 -50 -27
-5 -7 -8 -7 -8 2 0 7 7 15 15 18 8 4 12 10 9 15 -5 8 10 13 29 10 5 -1 7 4 5
11 -6 16 -39 24 -36 8 2 -7 -6 -17 -16 -23 -11 -7 -29 -20 -40 -29 -11 -10
-27 -18 -35 -18 -36 0 189 174 240 185 16 4 29 10 29 15 0 4 -23 -1 -52 -12
-63 -24 -185 -110 -307 -218 -50 -44 -88 -74 -85 -67 5 10 57 58 239 221 22
19 35 36 29 36 -5 0 -20 -9 -32 -20 -12 -12 -23 -16 -27 -10 -3 6 0 10 7 10 7
0 2 9 -12 20 -30 23 -48 5 -23 -22 21 -24 13 -30 -17 -15 -18 9 -24 20 -22 37
l3 25 -22 -27 c-11 -16 -25 -28 -31 -28 -6 0 -6 6 2 15 17 20 -4 20 -24 -1 -9
-8 -33 -18 -53 -21 -21 -3 -44 -10 -51 -16 -7 -5 -16 -7 -19 -3 -4 4 -2 11 6
15 10 6 9 10 -5 15 -9 4 -22 2 -28 -4 -8 -8 -5 -9 9 -4 19 6 19 6 3 -11 -14
-15 -20 -16 -33 -5 -8 7 -18 10 -22 6 -3 -3 -1 -6 5 -6 7 0 12 -7 12 -15 0
-10 -11 -15 -35 -15 -24 0 -35 -5 -35 -14 0 -18 -6 -22 -53 -30 -26 -5 -37 -4
-33 3 4 6 -11 1 -34 -11 -39 -21 -40 -21 -55 -2 -14 19 -20 11 -16 -23 2 -17
-10 -16 -35 1 -13 10 -25 11 -35 5 -8 -5 -23 -9 -34 -9 -20 1 -20 1 -1 15 20
15 20 15 0 17 -10 0 -23 2 -29 3 -5 2 -22 3 -37 4 -30 1 -41 31 -12 31 26 0 9
25 -19 28 -15 2 -27 8 -27 14 0 6 9 8 23 3 12 -4 72 -9 132 -12 95 -4 123 -1
207 21 103 26 204 76 257 126 17 17 29 36 25 42 -4 7 -3 8 5 4 6 -4 19 -2 27
5 12 10 12 14 2 21 -10 6 -7 10 9 14 14 4 20 11 16 22 -5 11 -3 13 7 7 10 -6
12 -4 7 8 -3 9 -2 19 3 22 6 4 10 18 10 32 0 23 2 24 17 12 11 -9 14 -9 10 -2
-4 7 1 30 12 53 10 22 15 42 10 46 -15 9 -10 34 6 34 20 0 19 16 -1 24 -14 5
-14 9 -3 22 7 9 12 30 11 48 -2 26 3 35 23 46 14 7 23 15 20 18 -2 3 -11 -1
-20 -8 -9 -7 -19 -10 -22 -6 -4 4 -1 11 7 16 12 7 12 12 0 34 -7 14 -11 29 -7
32 12 12 -17 33 -30 22 -10 -8 -13 -5 -13 10 0 11 -12 45 -26 76 -19 41 -31
56 -46 56 -14 0 -18 5 -14 15 3 8 2 15 -3 15 -5 0 -16 16 -25 35 -9 19 -21 37
-26 40 -6 4 -7 12 -4 18 4 7 4 9 -1 5 -4 -4 -18 6 -32 23 -14 16 -31 29 -38
29 -7 0 -28 17 -47 38 -21 24 -66 54 -121 81 -81 40 -94 44 -192 49 -72 3
-109 1 -118 -7 -8 -6 -21 -9 -30 -5 -9 3 -31 -1 -49 -9 -18 -9 -49 -19 -68
-22 -19 -4 -39 -10 -44 -13 -5 -3 -29 -5 -53 -6 -35 0 -43 -3 -38 -15 5 -13 4
-14 -6 -3 -7 6 -22 12 -32 12 -15 0 -17 -3 -8 -14 9 -11 8 -15 -5 -20 -27 -10
-35 -7 -32 12 3 18 -10 31 -14 15 -3 -15 -27 -33 -43 -33 -9 0 -13 -5 -10 -10
4 -7 -3 -9 -20 -6 -24 5 -27 2 -22 -19 3 -17 0 -25 -9 -25 -8 0 -14 10 -14 23
0 12 -5 29 -11 37 -7 11 -8 3 -4 -27 7 -43 3 -48 -33 -44 -6 1 -12 -3 -12 -9
0 -6 -10 -4 -23 5 -26 16 -43 9 -26 -11 7 -9 6 -14 -2 -20 -7 -4 -15 -2 -17 4
-2 7 -11 12 -19 12 -9 0 -13 -6 -9 -15 4 -11 -1 -15 -19 -15 -27 0 -33 -14
-12 -27 8 -5 2 -9 -18 -13 -18 -3 -30 -11 -30 -20 0 -11 -12 -15 -49 -14 -26
1 -43 -2 -36 -6 21 -13 1 -31 -28 -24 -26 6 -26 6 -7 -9 27 -20 16 -30 -16
-13 -13 7 -35 15 -48 19 -21 5 -22 4 -7 -12 22 -24 11 -32 -25 -19 -36 12 -52
2 -18 -11 23 -9 23 -10 -6 -10 -16 -1 -42 6 -57 13 -29 15 -70 18 -62 4 3 -4
13 -8 22 -8 16 -1 16 -1 0 -11 -12 -7 -24 -6 -37 1 -28 15 -49 14 -33 -2 27
-27 8 -26 -69 2 -44 17 -83 30 -85 30 -13 0 28 -32 43 -34 22 -4 29 -26 8 -26
-8 0 -26 7 -39 15 -12 8 -61 23 -107 34 -46 10 -92 22 -101 26 -11 4 -18 3
-18 -3 0 -6 14 -15 30 -21 45 -15 36 -22 -22 -17 -36 4 -47 2 -33 -4 33 -14
-4 -12 -70 6 -33 8 -89 18 -125 21 -36 3 -84 12 -108 19 -24 8 -48 12 -53 9
-5 -3 -17 -2 -26 3 -42 22 -98 -29 -201 -182 -114 -169 -121 -192 -92 -309 12
-48 20 -97 19 -109 -1 -13 5 -48 15 -78 9 -30 25 -109 36 -175 35 -225 70
-400 83 -422 3 -4 12 -50 21 -102 9 -52 21 -100 26 -106 6 -7 7 -15 3 -18 -3
-4 -2 -7 4 -7 5 0 16 -31 23 -70 7 -38 17 -67 21 -64 4 2 11 -12 15 -33 8 -41
37 -104 66 -142 l18 -24 1 44 c0 24 3 37 6 29 3 -8 9 -17 13 -20 11 -8 112
-200 105 -200 -3 0 3 -10 15 -22 11 -12 20 -30 20 -40 0 -9 11 -25 25 -34 14
-9 23 -19 21 -22 -3 -2 5 -13 18 -23 13 -11 36 -40 51 -65 15 -25 51 -71 80
-102 29 -31 75 -81 102 -109 27 -29 54 -53 60 -53 6 0 15 -9 18 -20 3 -11 10
-20 15 -20 5 0 39 -29 77 -64 105 -98 166 -146 186 -146 14 0 17 -5 13 -16 -4
-11 -2 -15 6 -11 7 2 27 -13 43 -34 17 -21 35 -38 42 -39 6 0 13 -3 15 -7 2
-5 19 -15 38 -24 223 -104 306 -159 343 -225 7 -12 35 -56 64 -97 28 -41 49
-78 46 -81 -4 -3 -12 3 -20 14 -8 11 -20 20 -27 20 -12 0 -53 -32 -109 -87
-39 -38 -113 -152 -125 -194 -17 -57 -36 -104 -46 -110 -11 -8 73 -26 167 -35
38 -3 74 -13 83 -21 7 -8 14 -10 14 -5 0 5 39 12 88 15 92 6 167 20 217 42 17
7 75 25 130 40 55 15 124 35 154 46 30 11 56 18 58 15 5 -5 -184 -72 -226 -80
-19 -3 -53 -11 -75 -17 -34 -10 -38 -13 -21 -19 16 -6 9 -11 -35 -23 -121 -35
-232 -50 -335 -44 -176 10 -298 51 -538 180 -66 36 -79 38 -54 12 6 -8 36 -41
65 -74 91 -102 270 -212 399 -245 35 -9 129 -21 210 -26 192 -12 191 -12 98
-19 -44 -3 -154 -2 -245 2 -163 8 -166 9 -229 43 -35 19 -65 33 -67 32 -1 -2
33 -43 78 -91 53 -58 78 -93 74 -103 -11 -28 22 -79 96 -146 158 -146 314
-245 498 -319 50 -20 36 -25 -19 -7 -65 20 -124 49 -247 119 -66 38 -128 69
-137 69 -8 0 -28 -17 -45 -37 -33 -43 -192 -297 -192 -307 0 -3 -12 -25 -27
-49 -138 -219 -258 -593 -293 -912 -24 -223 36 -397 184 -538 73 -70 163 -118
266 -142 47 -11 84 -26 99 -41 l25 -23 -22 -73 c-12 -40 -31 -103 -41 -140
-27 -90 -51 -269 -51 -374 0 -47 -7 -117 -14 -157 -15 -70 -19 -105 -32 -237
-5 -55 -3 -69 13 -89 l19 -23 75 21 c111 31 120 29 189 -34 51 -47 66 -55 99
-55 38 0 87 26 141 75 60 54 90 57 196 14 84 -34 174 -47 214 -31 14 5 59 49
101 98 85 100 108 113 210 113 86 1 97 14 143 162 39 127 59 153 118 164 20 4
44 12 53 19 46 34 63 255 46 627 -12 276 -6 340 34 393 41 54 70 61 199 49 82
-9 149 -24 256 -58 552 -176 735 -227 1030 -289 408 -85 586 -112 837 -126
110 -6 185 -15 208 -24 19 -8 90 -48 157 -88 96 -57 143 -93 218 -168 102
-101 244 -264 325 -370 67 -88 135 -160 151 -160 25 0 37 41 31 104 -8 79 -43
214 -106 405 -59 178 -83 318 -62 369 14 34 51 52 143 71 70 15 88 6 114 -58
58 -143 171 -334 274 -462 162 -203 274 -274 534 -340 65 -16 169 -48 230 -71
161 -59 174 -60 230 -8 61 56 98 61 214 25 57 -18 100 -25 116 -21 17 4 48 35
89 88 140 183 151 190 277 164 149 -31 184 -17 136 53 -26 37 -27 43 -21 122
7 77 5 86 -15 112 -12 15 -28 27 -35 27 -18 0 -42 36 -55 79 -7 26 -5 36 16
61 17 20 23 36 19 50 -3 10 -57 53 -118 94 -111 75 -167 119 -167 135 0 7 -15
16 -94 52 -15 7 -44 30 -65 49 -23 23 -57 43 -96 55 -33 10 -89 33 -125 51
-36 18 -85 38 -109 44 -72 19 -72 18 -196 294 -69 153 -146 286 -165 286 -12
0 -39 62 -33 77 15 38 93 3 185 -83 47 -44 92 -64 108 -48 5 5 20 50 33 99 14
50 35 113 48 142 l23 52 -20 41 c-10 22 -24 38 -31 36 -7 -3 -15 14 -22 42
-10 48 -21 363 -13 394 2 9 39 35 83 58 101 52 133 97 94 130 -13 10 -22 8
-54 -14 -21 -15 -61 -35 -89 -45 -62 -23 -73 -15 -78 57 -6 70 -24 281 -30
332 -3 25 -14 83 -24 130 -10 47 -21 106 -23 131 -4 45 -3 47 32 64 47 23 120
45 148 45 23 0 29 -14 53 -125 5 -27 12 -60 15 -72 6 -27 31 -30 39 -5 4 13
15 132 20 215 1 13 30 27 57 27 49 0 153 39 215 79 73 49 143 135 190 235 38
83 57 162 74 311 6 55 16 117 21 137 11 44 51 78 90 78 54 0 29 17 -48 33
-178 36 -244 47 -292 48 -58 2 -64 13 -32 66 29 47 53 123 53 169 0 52 -132
449 -174 522 -39 69 -74 109 -109 128 -30 15 -113 26 -136 17 -22 -9 -15 -43
12 -55 14 -6 25 -15 25 -20 0 -4 6 -8 13 -8 24 0 97 -70 97 -93 0 -12 12 -42
26 -67 28 -48 34 -94 16 -112 -21 -21 -14 -48 11 -48 20 0 25 -7 34 -46 8 -36
8 -52 -3 -73 -7 -14 -19 -47 -26 -73 -7 -27 -16 -48 -20 -48 -4 0 -8 -9 -8
-19 0 -14 -9 -20 -37 -23 -21 -3 -41 -1 -44 4 -3 5 -16 -7 -27 -26 -26 -45
-45 -46 -57 -3 -7 22 -17 33 -33 35 -14 2 -27 15 -37 38 -9 22 -21 34 -33 34
-20 0 -52 39 -52 63 0 8 -19 19 -42 26 -30 10 -38 15 -27 22 10 6 3 9 -22 9
-60 0 -122 34 -148 80 -21 37 -21 45 -11 96 7 30 23 81 37 112 35 77 36 97 8
153 -30 57 -103 163 -142 204 -15 16 -36 41 -45 55 -14 20 -18 21 -18 8 0 -10
-4 -18 -8 -18 -15 0 -33 66 -39 143 -3 43 -10 80 -14 83 -5 2 -21 -15 -36 -38
-50 -77 -86 -123 -80 -103 3 11 15 47 27 80 18 52 42 168 69 338 17 103 -13
53 -75 -126 -33 -96 -72 -152 -121 -173 -42 -18 -106 -21 -125 -5 -66 54 -88
77 -88 87 0 7 -6 14 -12 17 -7 2 -9 8 -5 13 5 5 14 2 21 -8 9 -12 16 -14 24
-6 7 7 4 16 -12 32 -12 11 -28 35 -36 51 -8 17 -16 33 -18 38 -2 4 15 7 38 7
33 0 40 3 33 13 -28 34 -25 107 3 107 20 0 17 25 -9 68 -13 20 -29 56 -37 80
-23 71 -82 122 -120 102 -10 -6 -23 -9 -27 -8 -16 3 -63 -15 -63 -24 0 -6 -11
-3 -25 6 -34 22 -50 20 -70 -10 -17 -26 -15 -88 4 -96 4 -2 11 -18 14 -36 8
-38 7 -37 -76 45 -28 29 -60 53 -70 53 -25 0 -71 34 -97 70 l-21 30 20 46 c12
26 21 53 21 61 0 8 7 27 15 41 76 139 150 382 116 382 -5 0 -32 -48 -60 -106
-48 -101 -135 -253 -151 -264 -3 -3 -12 -14 -19 -25 -26 -43 1 30 59 160 62
138 90 228 90 291 0 46 -21 127 -43 169 -22 43 -142 161 -207 204 -84 55 -87
59 -99 139 -11 69 -33 132 -48 132 -3 0 -21 -9 -40 -21 -46 -29 -87 -26 -171
9 -39 17 -106 40 -149 52 -43 12 -130 38 -193 58 -101 33 -120 42 -160 82 -65
66 -97 105 -147 178 -58 84 -65 91 -145 142 -38 24 -77 58 -88 77 -10 18 -25
32 -32 32 -7 -1 -47 -5 -88 -10z m865 -656 c142 -46 218 -80 297 -135 35 -25
69 -47 76 -49 6 -2 70 -62 142 -133 147 -147 169 -184 151 -254 -12 -42 -49
-96 -52 -74 -1 6 -3 17 -4 22 -1 6 -3 13 -4 18 -1 4 -5 13 -10 20 -11 18 -61
-6 -109 -52 -48 -44 -62 -77 -62 -140 0 -35 -5 -60 -15 -70 -8 -8 -15 -28 -15
-45 0 -33 -19 -81 -32 -81 -4 0 -8 -9 -8 -20 0 -13 -7 -20 -18 -20 -10 0 -22
-4 -28 -9 -12 -12 -45 -16 -64 -8 -8 3 -24 8 -35 10 -12 3 -7 5 13 6 17 0 32
6 32 11 0 14 -62 70 -78 70 -5 0 -21 17 -35 37 -15 21 -27 34 -27 30 0 -4 -10
1 -22 13 -12 11 -27 20 -34 20 -6 0 -19 11 -28 25 -17 25 -110 85 -134 85 -7
0 -37 11 -66 24 -44 20 -54 30 -65 64 -9 27 -12 61 -7 99 5 48 3 63 -14 88
-11 17 -20 40 -20 53 0 12 -4 22 -10 22 -6 0 -9 6 -7 13 1 6 -3 11 -10 10 -16
-3 -67 58 -55 66 5 3 12 29 16 56 3 28 20 95 38 150 31 95 35 101 68 112 47
17 102 9 235 -34z m-3069 -329 c72 -44 162 -137 169 -174 2 -11 7 -26 11 -33
11 -17 -20 7 -76 58 -75 70 -140 114 -179 121 -20 4 -51 13 -69 21 -21 9 -46
11 -69 7 -29 -5 -39 -3 -50 12 -7 10 -25 19 -40 20 -15 0 -29 6 -31 12 -3 11
39 17 93 13 12 -1 32 2 45 7 36 13 111 -11 196 -64z m-1771 -204 c-3 -5 -12
-10 -18 -10 -7 0 -6 4 3 10 19 12 23 12 15 0z m30 -10 c3 -5 1 -10 -4 -10 -6
0 -11 5 -11 10 0 6 2 10 4 10 3 0 8 -4 11 -10z m370 0 c8 -13 -5 -13 -25 0
-13 8 -13 10 2 10 9 0 20 -4 23 -10z m-45 -10 c0 -5 -4 -10 -9 -10 -6 0 -13 5
-16 10 -3 6 1 10 9 10 9 0 16 -4 16 -10z m-135 -20 c3 -5 -1 -10 -9 -10 -9 0
-16 5 -16 10 0 6 4 10 9 10 6 0 13 -4 16 -10z m1579 -31 c33 -19 55 -54 42
-66 -9 -9 -90 52 -94 71 -5 21 10 20 52 -5z m-25 -69 c39 -23 78 -43 88 -44
12 -2 18 -13 20 -34 3 -29 0 -32 -25 -32 -15 0 -33 -5 -40 -12 -8 -8 -14 -5
-22 16 -7 19 -25 33 -57 47 -27 11 -65 27 -86 36 -49 21 -65 48 -42 73 15 17
20 17 56 5 21 -8 70 -33 108 -55z m351 10 c0 -5 -2 -10 -4 -10 -3 0 -8 5 -11
10 -3 6 -1 10 4 10 6 0 11 -4 11 -10z m15 -40 c3 -5 1 -10 -4 -10 -6 0 -11 5
-11 10 0 6 2 10 4 10 3 0 8 -4 11 -10z m-89 -202 c-3 -26 -14 -64 -24 -85 -23
-43 -97 -110 -159 -142 -57 -29 -68 -27 -16 4 61 34 119 84 150 128 23 33 27
49 27 108 1 60 3 67 14 52 9 -12 12 -34 8 -65z m-34 -8 c-2 -37 -19 -80 -33
-80 -3 0 -4 13 -1 30 2 16 8 27 13 24 5 -3 9 14 9 37 0 23 3 39 7 36 3 -4 6
-25 5 -47z m2413 -77 c22 -23 72 -58 110 -78 43 -23 58 -35 40 -31 -84 18
-179 95 -224 179 l-22 42 28 -35 c15 -19 46 -54 68 -77z m480 37 c20 -11 42
-20 50 -20 8 0 15 -4 15 -10 0 -5 -2 -10 -5 -10 -10 0 -105 50 -105 55 0 8 8
6 45 -15z m-3025 -61 c-7 -11 -14 -18 -17 -15 -3 3 0 12 7 21 18 21 23 19 10
-6z m-939 -96 c36 -35 50 -63 31 -63 -10 0 -52 56 -52 70 0 5 -4 10 -10 10 -5
0 -10 -5 -10 -11 0 -5 -4 -8 -10 -4 -9 5 -3 35 7 35 3 0 23 -17 44 -37z m3478
-7 c13 -16 72 -38 251 -94 224 -71 256 -102 187 -179 -18 -21 -46 -60 -61 -86
-15 -27 -34 -51 -42 -54 -15 -6 -275 78 -335 108 -20 10 -39 25 -43 34 -6 16
0 160 10 243 5 44 14 51 33 28z m-3492 -38 c14 -13 37 -22 56 -23 24 0 32 -4
31 -17 -1 -10 2 -15 7 -13 4 3 30 -10 57 -30 63 -45 124 -71 187 -81 28 -4 44
-9 38 -11 -18 -6 -16 -23 2 -23 9 0 22 -5 29 -12 11 -10 11 -15 0 -25 -16 -16
-24 -16 -24 0 0 20 -33 35 -73 32 -35 -2 -51 9 -25 17 7 3 2 7 -10 10 -15 4
-22 2 -22 -8 0 -16 -16 -19 -24 -5 -4 5 -1 11 5 13 7 2 5 9 -5 17 -14 11 -16
11 -16 -2 0 -11 -5 -14 -16 -10 -8 3 -13 12 -9 21 4 12 1 12 -21 -2 -24 -17
-26 -17 -30 1 -3 10 -32 31 -65 47 -48 23 -58 32 -54 47 4 11 2 19 -4 19 -15
0 -62 46 -54 53 10 11 15 9 40 -15z m771 -15 c-10 -2 -26 -2 -35 0 -10 3 -2 5
17 5 19 0 27 -2 18 -5z m372 -157 c0 -3 -4 -8 -10 -11 -5 -3 -10 -1 -10 4 0 6
5 11 10 11 6 0 10 -2 10 -4z m-50 -21 c0 -8 -2 -15 -4 -15 -2 0 -6 7 -10 15
-3 8 -1 15 4 15 6 0 10 -7 10 -15z m3433 -23 c11 -9 24 -26 29 -37 11 -19 10
-19 -15 -2 -14 9 -57 24 -96 33 -39 8 -69 19 -67 22 8 14 131 0 149 -16z
m-290 -48 c189 -95 387 -249 387 -301 0 -27 -2 -28 -40 -8 -17 9 -30 11 -30 5
0 -5 4 -10 10 -10 10 0 30 -63 30 -97 0 -29 -26 -53 -57 -53 -15 0 -74 27
-132 60 -114 63 -305 155 -386 185 -85 32 -110 49 -113 80 -7 54 121 205 173
205 14 0 85 -30 158 -66z m-2893 -18 c0 -8 -7 -22 -16 -30 -18 -18 -28 -21
-19 -6 4 7 -3 9 -22 5 l-28 -6 24 20 c12 12 27 18 32 15 5 -3 9 0 9 5 0 6 5
11 10 11 6 0 10 -6 10 -14z m-853 -2 c-3 -3 -12 -4 -19 -1 -8 3 -5 6 6 6 11 1
17 -2 13 -5z m4123 -35 c0 -6 -4 -7 -10 -4 -5 3 -10 11 -10 16 0 6 5 7 10 4 6
-3 10 -11 10 -16z m-4095 1 c13 -6 15 -9 5 -9 -8 0 -22 4 -30 9 -18 12 -2 12
25 0z m655 6 c0 -2 -8 -10 -17 -17 -16 -13 -17 -12 -4 4 13 16 21 21 21 13z
m3338 -46 c54 -44 102 -98 102 -114 0 -12 -39 14 -88 57 -26 23 -65 56 -87 74
-40 32 -40 32 -13 33 18 0 47 -17 86 -50z m-3285 26 c4 -10 1 -13 -8 -9 -8 3
-12 9 -9 14 7 12 11 11 17 -5z m127 -37 c0 -4 -11 -9 -25 -11 -23 -5 -32 2
-20 13 7 7 45 5 45 -2z m-33 -51 c-3 -8 -6 -5 -6 6 -1 11 2 17 5 13 3 -3 4
-12 1 -19z m33 12 c0 -5 -2 -10 -4 -10 -3 0 -8 5 -11 10 -3 6 -1 10 4 10 6 0
11 -4 11 -10z m200 -141 c0 -6 -4 -7 -10 -4 -5 3 -10 11 -10 16 0 6 5 7 10 4
6 -3 10 -11 10 -16z m43 -23 c4 -10 1 -13 -9 -9 -7 3 -14 9 -14 14 0 14 17 10
23 -5z m1622 -16 c3 -5 -5 -35 -19 -67 -13 -32 -41 -110 -61 -173 -98 -301
-266 -717 -376 -933 -22 -43 -56 -122 -75 -175 -43 -119 -78 -195 -99 -212 -8
-7 -15 -9 -15 -4 0 10 -43 -76 -45 -91 -1 -5 -5 -22 -9 -37 -8 -28 -26 -29
-26 -2 0 9 5 12 11 8 7 -4 10 -1 7 7 -3 8 8 39 24 70 15 31 31 71 34 88 4 17
12 31 18 31 19 0 106 197 260 587 149 378 164 416 247 651 43 122 83 231 89
242 12 22 25 26 35 10z m1602 -64 c54 -41 136 -97 183 -125 122 -72 160 -99
160 -114 0 -8 -16 -34 -35 -58 -19 -24 -40 -60 -46 -79 -6 -19 -18 -43 -27
-52 -16 -19 -62 -25 -62 -8 0 6 -6 10 -12 10 -11 0 -99 83 -161 150 -8 9 -60
45 -115 80 -82 53 -102 70 -102 89 0 31 87 181 105 181 8 0 58 -33 112 -74z
m-3227 34 c0 -5 -2 -10 -4 -10 -3 0 -8 5 -11 10 -3 6 -1 10 4 10 6 0 11 -4 11
-10z m510 -50 c0 -5 -5 -10 -11 -10 -5 0 -7 5 -4 10 3 6 8 10 11 10 2 0 4 -4
4 -10z m45 -50 c3 -5 -3 -10 -14 -10 -12 0 -21 5 -21 10 0 6 6 10 14 10 8 0
18 -4 21 -10z m-383 -35 c-2 -14 -6 -25 -8 -25 -2 0 -4 11 -4 25 0 14 4 25 9
25 4 0 6 -11 3 -25z m38 -75 c0 -5 -4 -10 -10 -10 -5 0 -10 5 -10 10 0 6 5 10
10 10 6 0 10 -4 10 -10z m3550 -62 c0 -12 -41 -20 -76 -13 -52 9 -41 20 21 20
30 0 55 -3 55 -7z m38 -92 c10 -11 39 -50 64 -86 25 -36 100 -117 166 -181
129 -126 140 -139 120 -139 -17 0 -229 213 -287 287 -39 50 -101 95 -101 73 0
-25 95 -143 205 -257 65 -67 126 -135 134 -150 19 -35 20 -147 1 -194 -17 -43
-55 -96 -80 -109 -16 -8 -27 -1 -70 44 -63 67 -230 274 -230 286 0 15 -93 123
-162 189 -44 41 -68 72 -68 86 0 27 43 88 97 136 38 34 43 36 116 36 65 1 78
-2 95 -21z m171 -14 c23 -36 23 -36 1 -17 -25 22 -45 55 -33 55 4 -1 19 -18
32 -38z m-3702 -49 c-3 -10 -5 -4 -5 12 0 17 2 24 5 18 2 -7 2 -21 0 -30z
m1179 -195 c-20 -123 -289 -890 -346 -983 -10 -16 -35 -70 -56 -120 -21 -49
-60 -125 -86 -168 -26 -43 -48 -81 -48 -83 0 -3 -5 -10 -10 -17 -32 -37 -79
-120 -73 -130 3 -7 2 -9 -2 -4 -5 4 -20 -12 -34 -35 -51 -86 -212 -286 -318
-393 -106 -109 -184 -174 -272 -230 -25 -15 -49 -31 -55 -36 -29 -25 -389
-239 -446 -266 -99 -46 -247 -95 -345 -113 -114 -21 -321 -24 -429 -6 -54 9
-106 21 -115 27 -13 8 -11 9 9 5 127 -30 213 -38 330 -32 337 17 638 141 950
390 213 171 404 381 577 635 24 35 30 57 14 47 -13 -8 0 36 15 52 21 21 25 13
8 -13 -9 -14 -14 -28 -11 -31 4 -5 97 129 97 141 0 2 21 39 48 82 47 79 84
156 119 245 10 27 21 48 26 48 4 0 7 11 7 25 0 14 4 25 8 25 13 0 67 109 92
185 27 83 57 157 109 268 22 45 46 100 56 122 12 31 18 36 25 25 8 -13 10 -12
10 3 0 11 6 31 14 45 8 15 19 46 25 68 6 23 26 67 44 97 18 30 39 80 47 111
15 65 26 75 16 14z m2735 -656 c5 -2 9 -10 9 -17 0 -7 14 -39 30 -70 17 -31
30 -63 30 -71 0 -8 11 -32 25 -54 14 -22 25 -43 25 -46 0 -4 7 -12 15 -18 8
-6 18 -32 21 -58 5 -39 4 -48 -8 -48 -14 0 -53 78 -53 106 0 6 -8 22 -17 35
-9 14 -32 63 -51 110 -19 46 -54 123 -76 171 -43 93 -48 116 -29 151 10 19 15
10 41 -83 16 -58 33 -106 38 -108z m-91 38 c15 -41 61 -154 103 -251 92 -215
95 -228 51 -248 -22 -10 -30 -9 -45 5 -10 9 -21 26 -25 38 -3 11 -21 53 -39
91 -18 39 -40 86 -48 105 -24 53 -77 193 -77 204 0 5 -7 17 -16 27 -13 14 -13
22 -4 41 17 33 52 69 63 65 5 -1 22 -36 37 -77z m-3210 36 c0 -31 -71 -140
-82 -123 -4 6 -1 22 7 34 8 13 23 35 32 51 l17 27 -35 -30 c-24 -21 -21 -16
11 18 24 26 45 47 47 47 2 0 3 -11 3 -24z m63 -73 c19 -27 40 -66 46 -88 13
-48 13 -69 1 -37 -13 31 -36 27 -49 -8 -5 -16 -13 -30 -18 -30 -13 0 -73 63
-73 77 0 7 -5 13 -11 13 -7 0 -5 9 5 23 18 25 21 31 35 70 6 15 15 27 20 27 5
0 25 -21 44 -47z m-163 -33 c0 -5 -2 -10 -4 -10 -3 0 -8 5 -11 10 -3 6 -1 10
4 10 6 0 11 -4 11 -10z m1215 -60 c3 -5 -1 -10 -10 -10 -9 0 -13 5 -10 10 3 6
8 10 10 10 2 0 7 -4 10 -10z m3040 -4 l35 -15 0 -79 c0 -120 -18 -279 -40
-352 -25 -85 -83 -181 -142 -236 -47 -43 -48 -44 -118 -44 -39 0 -80 -4 -90
-10 -34 -18 -50 12 -50 92 0 39 3 68 6 65 4 -4 16 3 26 16 17 19 19 31 13 92
-8 84 -39 240 -62 313 -9 31 -12 56 -7 61 8 8 120 42 254 77 30 8 59 19 65 25
14 14 71 11 110 -5z m-3089 -38 c5 -7 2 -9 -8 -5 -9 3 -28 -1 -44 -9 l-29 -14
24 20 c26 23 46 26 57 8z m-116 -18 c-8 -5 -19 -10 -25 -10 -5 0 -3 5 5 10 8
5 20 10 25 10 6 0 3 -5 -5 -10z m155 -40 l30 -8 -27 -1 c-39 -1 -41 -2 -60
-12 -10 -5 -18 -15 -18 -21 0 -6 3 -8 7 -5 3 4 13 1 21 -6 12 -9 14 -9 9 0
-11 18 62 30 74 12 7 -11 9 -10 9 5 0 13 5 16 18 11 9 -4 31 -12 47 -17 17 -6
35 -16 40 -22 6 -6 26 -19 44 -29 l34 -18 -17 25 c-9 14 -16 28 -16 31 0 9 42
-16 65 -39 l22 -22 -22 -16 c-14 -11 -26 -13 -36 -7 -19 12 -42 11 -34 -1 3
-5 1 -10 -5 -10 -6 0 -19 -7 -27 -16 -11 -10 -26 -14 -44 -10 -22 4 -27 2 -23
-9 9 -22 -56 -10 -118 21 -42 21 -55 24 -75 15 -22 -10 -24 -9 -18 8 5 16 2
19 -14 18 -14 -1 -17 -5 -11 -11 6 -6 10 -18 10 -28 0 -11 5 -15 15 -12 8 4
15 1 15 -7 0 -7 -3 -9 -6 -6 -4 3 -14 2 -24 -3 -14 -8 -17 -5 -17 15 0 31 -12
45 -68 80 -24 16 -42 32 -39 37 8 13 26 9 19 -4 -4 -7 2 -4 12 7 23 26 64 55
78 55 6 0 6 -3 -1 -8 -12 -8 -34 -46 -34 -58 0 -4 14 5 30 21 17 16 30 26 30
22 0 -4 15 2 33 13 34 21 44 22 92 10z m136 -15 c38 -9 58 -18 54 -25 -3 -5
-29 1 -57 12 -59 22 -76 33 -37 23 14 -3 32 -8 40 -10z m-1578 -30 c10 -14 15
-30 11 -37 -4 -6 -3 -8 3 -5 6 4 16 0 23 -8 11 -13 10 -14 -6 -8 -17 6 -17 5
-5 -10 12 -15 11 -17 -2 -17 -9 0 -30 21 -47 46 -24 37 -28 49 -18 55 19 12
21 11 41 -16z m177 0 c9 -11 9 -22 0 -49 -13 -42 -29 -54 -41 -35 -5 8 -9 10
-9 5 0 -5 -7 -3 -15 4 -13 11 -12 17 7 51 23 42 38 48 58 24z m1710 -129 c31
-64 79 -110 126 -122 16 -4 43 -18 60 -31 20 -15 38 -21 50 -17 12 4 15 3 7
-3 -14 -10 28 -47 84 -76 41 -22 49 -35 29 -50 -14 -10 -13 -12 9 -14 14 -1
33 -3 43 -4 9 -1 27 -14 39 -28 13 -14 23 -20 23 -13 0 6 5 12 10 12 6 0 10
-6 10 -14 0 -8 19 -28 43 -43 23 -16 42 -35 42 -42 0 -8 -17 -23 -38 -34 -21
-11 -36 -21 -33 -24 2 -3 14 1 26 7 30 16 60 21 60 9 0 -5 9 -9 20 -9 11 0 20
5 20 11 0 7 9 5 23 -5 12 -9 32 -21 45 -26 27 -12 39 -37 24 -52 -8 -8 -19 -8
-39 1 l-28 12 27 -23 c14 -13 44 -33 65 -44 21 -10 41 -23 44 -28 4 -5 15 -5
25 -1 18 8 18 8 -1 13 -30 6 -54 32 -48 50 5 14 3 15 -8 5 -7 -7 -17 -13 -21
-13 -14 0 -9 18 7 24 19 7 65 -13 65 -28 0 -7 19 -24 42 -39 23 -15 38 -27 34
-27 -5 0 -3 -7 4 -15 14 -17 40 -20 40 -5 0 5 -12 21 -27 36 l-28 26 30 -16
c47 -24 130 -92 128 -104 -2 -6 3 -9 10 -7 6 2 21 -10 33 -28 12 -20 27 -31
39 -30 45 4 221 -171 264 -263 29 -60 48 -129 58 -211 4 -38 2 -44 -21 -54
-14 -7 -26 -16 -26 -21 0 -4 -6 -8 -13 -8 -17 0 -38 36 -31 55 4 8 1 15 -6 15
-8 0 -11 12 -8 35 3 28 1 35 -11 34 -21 -3 -53 11 -71 31 -8 8 -39 27 -67 40
-29 14 -53 27 -53 30 0 3 20 16 44 27 34 17 46 19 57 10 11 -10 11 -9 0 5 -7
10 -18 15 -24 11 -25 -15 -114 -30 -135 -22 -12 5 -22 5 -22 0 0 -4 -11 -13
-25 -19 -14 -6 -25 -8 -25 -3 0 5 6 12 13 14 12 6 -16 11 -43 8 -11 -1 -11 2
3 13 18 14 18 14 -2 21 -26 8 -27 30 -3 50 82 71 102 84 137 91 22 4 35 9 28
11 -6 2 -27 0 -45 -5 -30 -8 -38 -6 -70 22 -20 17 -50 54 -68 81 -17 28 -29
42 -26 32 3 -10 2 -27 -4 -37 -7 -13 -5 -21 5 -30 13 -11 14 -10 9 5 -5 13 -4
16 4 11 7 -4 12 -13 12 -19 1 -7 21 -27 45 -45 25 -18 45 -37 45 -42 0 -16
-33 -28 -93 -32 -48 -4 -57 -2 -52 10 4 12 3 13 -9 3 -9 -7 -24 -10 -37 -6
-14 5 -19 3 -15 -3 7 -12 -23 -32 -48 -32 -9 0 -16 8 -16 18 0 14 -2 15 -10 2
-9 -13 -11 -13 -19 0 -6 8 -6 17 -2 20 4 3 11 19 15 35 6 28 5 29 -9 10 -15
-18 -16 -18 -33 -1 -16 16 -16 18 2 32 11 8 15 14 10 14 -6 0 -15 -5 -22 -12
-9 -9 -12 -9 -12 2 0 8 -7 1 -16 -17 -15 -30 -34 -37 -51 -18 -4 4 -3 5 4 1 6
-3 15 -1 19 5 5 8 -1 10 -17 7 -17 -3 -25 0 -26 11 -3 35 -10 55 -22 59 -8 3
-10 -4 -5 -22 3 -14 3 -34 -1 -43 -6 -17 -7 -17 -17 1 -8 15 -8 21 0 24 16 5
15 18 -3 35 -13 13 -11 18 12 41 28 29 45 34 37 11 -3 -8 -9 -14 -12 -13 -22
2 -19 -6 15 -34 21 -18 40 -36 41 -40 6 -13 20 -9 18 5 -6 29 -26 65 -37 69
-25 8 -17 39 16 64 55 42 110 8 121 -76 5 -34 10 -46 23 -46 16 0 16 5 -5 58
-14 37 -19 60 -12 64 8 5 -18 17 -98 44 -1 0 -11 -9 -24 -20 -12 -11 -28 -17
-34 -13 -6 3 -8 3 -4 -2 5 -5 -6 -17 -22 -27 -38 -23 -40 -23 -40 2 0 11 -4
20 -8 20 -5 0 -8 -10 -8 -22 1 -16 -4 -23 -16 -22 -10 1 -18 -3 -19 -10 0 -6
-4 -1 -9 12 -5 12 -17 22 -26 22 -10 0 -14 5 -10 16 3 8 2 12 -4 9 -6 -4 -10
6 -10 22 0 19 3 24 9 15 6 -11 10 -10 16 5 5 10 7 22 6 26 -1 5 9 17 21 27 13
10 20 22 16 26 -5 4 -17 -1 -27 -10 -19 -17 -20 -17 -24 6 -4 21 -4 21 -6 -4
0 -15 -6 -30 -13 -34 -8 -5 -9 -2 -5 9 3 9 2 19 -3 22 -6 4 -10 -6 -10 -22 -1
-27 -1 -27 -15 -9 -12 16 -15 17 -15 4 0 -32 -62 -40 -90 -11 -11 12 -12 14
-1 8 11 -6 13 -3 9 12 -5 17 -1 21 17 18 16 -1 25 4 28 16 3 11 0 19 -6 19 -7
0 -6 4 3 9 8 6 19 7 25 3 5 -3 4 2 -3 10 -8 9 -20 14 -28 11 -10 -4 -14 3 -14
27 0 32 0 32 -22 16 -62 -45 -146 -71 -135 -42 3 7 -1 23 -9 34 -13 18 -12 21
3 25 12 3 9 5 -8 6 -15 0 -32 8 -39 16 -10 13 -9 15 11 15 19 0 21 -2 9 -10
-12 -8 -11 -10 7 -10 16 0 21 4 17 15 -4 8 -14 15 -23 15 -9 0 -27 3 -41 7
-24 6 -24 6 -7 -11 19 -20 22 -36 6 -36 -5 0 -7 -6 -3 -12 5 -8 1 -8 -10 1
-15 13 -19 13 -26 1 -11 -18 12 -47 38 -47 23 0 43 17 35 31 -4 7 -1 7 7 -1
19 -18 22 -63 4 -70 -9 -3 -21 0 -27 6 -9 10 -9 12 2 9 7 -2 15 3 17 10 1 7 0
8 -2 3 -3 -6 -12 -7 -20 -4 -8 3 -14 -1 -14 -8 0 -7 -20 7 -45 31 -24 24 -43
46 -40 48 2 3 11 -1 20 -8 17 -14 21 0 5 16 -17 17 0 45 31 51 16 3 29 9 29
13 0 5 13 7 29 6 17 -1 28 1 26 4 -2 4 14 15 36 24 l41 18 44 -43 c24 -23 46
-40 49 -38 2 3 -13 22 -35 43 -22 21 -40 43 -40 50 0 16 -105 133 -132 147
-14 7 -23 7 -34 -1 -7 -7 -25 -10 -39 -8 -14 3 -28 2 -30 -3 -3 -4 -24 10 -46
32 -22 21 -44 39 -49 39 -6 0 -10 9 -10 19 0 11 -4 23 -10 26 -5 3 -10 0 -10
-8 0 -20 -37 -14 -55 9 -15 18 -15 18 -13 -6 2 -20 9 -26 35 -28 21 -2 45 -15
65 -35 17 -18 35 -33 40 -33 4 -1 13 -2 18 -3 15 -2 12 -18 -6 -25 -8 -3 -12
-2 -9 4 3 6 3 10 -2 10 -4 0 -16 -14 -26 -32 -13 -23 -21 -28 -26 -19 -6 9
-10 6 -16 -11 -6 -19 -8 -20 -12 -5 -6 24 -23 21 -23 -5 0 -12 -3 -18 -7 -15
-3 4 -12 2 -19 -4 -20 -16 -38 -1 -22 19 11 13 11 14 -1 7 -11 -6 -13 -4 -8 8
3 10 2 17 -3 17 -6 0 -10 -6 -10 -14 0 -7 -7 -19 -15 -26 -18 -15 -19 -7 -5
21 8 14 8 19 -1 17 -6 -2 -13 2 -16 8 -2 7 6 10 19 9 13 -2 29 3 35 11 10 10
6 12 -21 7 -21 -3 -36 -1 -41 7 -6 9 -4 11 6 5 12 -8 12 -6 0 8 -12 15 -12 20
5 32 10 8 29 18 42 21 32 9 28 28 -5 20 -70 -18 -79 -17 -106 4 -35 28 -39 79
-4 82 43 3 61 -3 94 -28 44 -33 42 -15 -2 23 -33 28 -45 52 -27 54 4 0 23 2
42 4 124 11 160 18 150 30 -5 6 -7 14 -4 18 14 14 37 -10 64 -67z m-469 -15
c17 -11 40 -16 52 -13 18 4 20 3 11 -9 -6 -8 -11 -22 -11 -33 0 -16 3 -15 20
8 20 28 47 35 47 12 0 -28 -13 -76 -21 -76 -4 0 -11 10 -15 22 l-7 22 -21 -25
c-12 -14 -27 -24 -34 -21 -7 2 -12 -3 -12 -12 0 -22 16 -20 40 4 14 14 20 16
20 6 0 -14 -78 -51 -88 -41 -3 3 -1 5 5 5 5 0 10 13 10 30 0 18 -4 27 -11 23
-6 -3 -5 0 2 8 11 12 14 12 21 0 11 -18 30 -6 28 19 -1 10 -5 17 -9 14 -4 -3
-4 -12 -1 -22 6 -14 4 -15 -9 -4 -8 7 -24 9 -34 6 -17 -6 -17 -5 1 13 12 11
27 22 35 25 16 6 -29 29 -62 33 -10 1 -21 5 -25 10 -5 4 3 4 16 0 16 -5 21 -4
17 4 -10 16 -1 14 35 -8z m-153 -23 c-9 -13 -24 -24 -34 -26 -14 -2 -12 3 11
23 37 31 42 31 23 3z m79 6 c-3 -3 -12 -4 -19 -1 -8 3 -5 6 6 6 11 1 17 -2 13
-5z m30 -18 c0 -8 -6 -12 -12 -9 -7 2 -15 -2 -18 -11 -7 -17 20 -30 27 -13 3
9 5 9 5 0 2 -21 -20 -25 -40 -7 -19 17 -19 18 8 36 16 10 28 18 29 18 0 0 1
-6 1 -14z m-1068 -171 c-29 -59 -57 -109 -62 -112 -17 -10 -16 4 3 42 11 22
20 48 20 60 0 15 2 17 9 6 7 -11 10 -9 16 8 10 33 57 113 63 107 2 -3 -19 -53
-49 -111z m1081 99 c0 -11 -5 -14 -16 -10 -9 3 -21 6 -27 7 -7 0 -3 4 8 9 29
13 35 12 35 -6z m2476 -11 c21 -22 27 -25 34 -13 5 8 12 12 15 8 4 -4 26 -59
50 -122 38 -102 60 -192 58 -233 0 -7 -1 -22 -2 -33 -1 -24 -87 -89 -118 -90
-13 0 -27 9 -34 23 -14 25 -41 47 -51 41 -3 -2 -9 4 -12 14 -4 10 -22 35 -41
56 -19 21 -46 63 -60 94 -15 32 -39 83 -55 115 l-29 59 52 23 c47 22 53 23 69
8 10 -9 18 -22 18 -30 0 -8 10 -33 22 -56 l23 -42 3 30 c2 16 -2 55 -8 87 -10
46 -10 61 0 73 18 22 38 18 66 -12z m-2310 -22 c-3 -4 -20 -11 -38 -15 -27 -5
-30 -9 -18 -17 12 -9 12 -10 1 -7 -27 8 -22 25 11 35 43 14 50 15 44 4z m64
-42 c0 -22 -5 -39 -11 -39 -5 0 -8 -4 -5 -8 2 -4 -4 -8 -14 -9 -21 -2 -21 23
1 39 12 8 11 9 -2 5 -9 -3 -22 -1 -30 4 -11 7 -11 9 4 9 9 0 17 5 17 11 0 5
-4 8 -9 5 -5 -4 -7 2 -4 12 3 14 11 18 29 14 20 -4 24 -10 24 -43z m-80 11 c0
-5 -4 -10 -10 -10 -5 0 -10 5 -10 10 0 6 5 10 10 10 6 0 10 -4 10 -10z m-84
-15 c4 -8 12 -15 19 -15 6 0 20 -10 31 -22 19 -23 19 -23 -2 -5 -11 9 -26 17
-32 17 -6 0 -15 8 -21 17 -5 10 -13 15 -17 11 -4 -4 -1 -14 5 -22 10 -12 9
-15 -7 -13 -20 1 -23 12 -9 35 11 16 26 15 33 -3z m544 -4 c0 -5 8 -12 19 -16
10 -3 39 -33 65 -66 26 -34 43 -58 36 -54 -6 4 -16 2 -23 -3 -20 -16 -61 -26
-53 -13 4 6 2 9 -7 6 -7 -3 -30 6 -51 20 -20 14 -39 25 -42 25 -2 0 -22 11
-44 25 -41 26 -52 45 -24 45 8 0 13 3 10 8 -2 4 13 6 34 4 25 -3 42 1 51 12
16 17 29 21 29 7z m-2720 -65 c0 -3 -152 -115 -190 -139 -39 -25 53 50 115 94
70 49 75 52 75 45z m2352 -31 c4 -18 1 -21 -14 -17 -10 2 -15 8 -12 14 3 5 1
15 -6 23 -9 11 -7 12 8 8 11 -3 22 -15 24 -28z m222 10 c-3 -7 -12 -11 -20 -8
-8 3 -14 0 -14 -7 0 -6 -5 -8 -12 -4 -8 5 -4 13 11 26 25 19 43 16 35 -7z
m-336 3 c15 -15 16 -32 2 -23 -5 3 -10 1 -10 -6 0 -7 -8 -5 -20 6 -16 14 -17
20 -8 27 17 10 22 10 36 -4z m417 -34 c22 -3 85 -44 85 -55 0 -14 -30 -11 -30
4 -1 7 -6 5 -14 -6 -17 -22 -28 -21 -40 1 -9 15 -11 14 -17 -8 -6 -23 -7 -23
-8 -3 -1 13 -13 29 -31 40 -37 21 -39 36 -4 23 34 -13 39 -13 24 5 -7 8 -16
13 -20 10 -12 -7 -23 13 -15 26 5 7 16 2 31 -12 14 -13 31 -24 39 -25z m-2316
-4 c9 -13 11 -21 4 -17 -6 4 -14 1 -16 -5 -4 -9 -12 -5 -25 12 -11 13 -18 28
-15 33 9 14 35 3 52 -23z m1817 19 c11 -18 -14 -35 -28 -20 -11 10 -10 11 5 6
19 -8 24 10 5 18 -10 4 -10 6 -1 6 6 1 15 -4 19 -10z m154 7 c0 -2 -7 -7 -16
-10 -8 -3 -12 -2 -9 4 6 10 25 14 25 6z m248 -22 c-4 -3 8 -19 24 -35 19 -17
25 -29 17 -29 -10 -1 -8 -5 5 -15 11 -8 15 -15 9 -15 -7 0 -18 7 -27 15 -8 9
-18 16 -21 15 -21 -1 -25 2 -25 19 0 11 -5 23 -12 27 -8 5 -6 10 8 15 24 10
29 10 22 3z m-104 -19 c-4 -11 0 -15 16 -15 16 0 20 4 16 15 -3 9 0 15 8 15 7
0 19 -7 26 -15 10 -12 10 -15 -3 -15 -9 0 -14 -7 -12 -17 2 -10 4 -21 4 -26 1
-4 14 -6 29 -5 35 3 53 -8 45 -28 -5 -14 -8 -13 -18 6 -11 20 -13 20 -19 5 -3
-9 -3 -22 1 -28 4 -7 -1 -6 -10 2 -11 9 -17 10 -17 2 0 -6 -5 -11 -12 -11 -9
0 -9 3 0 12 16 16 15 31 -2 25 -18 -7 -80 48 -71 62 3 6 -1 11 -9 11 -9 0 -16
5 -16 10 0 6 11 10 25 10 18 0 23 -4 19 -15z m-57 -14 c1 -13 -5 -18 -23 -18
-13 0 -24 3 -24 7 0 9 -74 -11 -86 -23 -4 -4 -22 -7 -40 -7 -18 0 -35 -4 -39
-10 -3 -5 -19 -8 -34 -7 -16 1 -27 6 -24 10 3 4 12 7 21 6 10 -1 24 0 32 4 8
3 47 13 85 22 39 9 77 20 85 25 24 16 46 11 47 -9z m12 -59 c0 -14 -2 -14 -6
-2 -4 8 -13 21 -22 28 -14 11 -13 11 7 2 12 -6 22 -18 21 -28z m121 28 c0 -5
-2 -10 -4 -10 -3 0 -8 5 -11 10 -3 6 -1 10 4 10 6 0 11 -4 11 -10z m-2740 -35
c0 -2 -10 -9 -22 -15 -22 -11 -22 -10 -4 4 21 17 26 19 26 11z m2638 -52 c0
-21 -2 -23 -10 -9 -5 9 -6 21 -3 26 10 16 13 12 13 -17z m-2748 -25 c-64 -39
-120 -67 -120 -59 0 8 129 80 145 81 6 0 -6 -10 -25 -22z m2937 -24 c-2 -2
-17 0 -35 5 -17 5 -40 7 -52 4 -30 -8 -24 12 8 23 22 8 32 7 55 -9 16 -10 26
-21 24 -23z m110 12 c0 -8 -9 -14 -19 -13 -18 1 -18 2 -2 14 22 16 21 16 21
-1z m-227 -4 c0 -8 -57 -32 -76 -32 -9 0 55 37 69 39 4 0 7 -3 7 -7z m-2460
-47 c0 -6 -11 -18 -25 -25 -14 -7 -25 -17 -25 -22 0 -5 -4 -6 -10 -3 -17 11
-11 23 19 41 25 15 28 21 20 38 -10 21 -10 21 5 2 9 -11 16 -25 16 -31z m2560
14 c22 -12 40 -23 40 -25 0 -9 -38 4 -70 24 -45 28 -23 29 30 1z m-90 7 c0 -2
-7 -6 -15 -10 -8 -3 -15 -1 -15 4 0 6 7 10 15 10 8 0 15 -2 15 -4z m140 -6 c0
-5 -2 -10 -4 -10 -3 0 -8 5 -11 10 -3 6 -1 10 4 10 6 0 11 -4 11 -10z m276
-26 c1 -9 -1 -13 -4 -9 -4 4 -7 10 -7 13 0 4 -4 14 -9 22 -7 12 -6 13 4 3 8
-7 15 -20 16 -29z m-511 5 c-8 -12 -32 -11 -41 2 -4 8 1 9 16 4 17 -5 21 -4
15 5 -5 9 -4 11 4 6 6 -4 9 -12 6 -17z m289 -28 c-2 -3 -12 3 -22 13 -16 17
-16 18 5 5 12 -7 20 -15 17 -18z m183 12 c5 3 10 -5 11 -19 1 -19 -2 -23 -21
-20 -16 2 -22 10 -23 29 -1 21 2 25 12 16 7 -6 17 -8 21 -6z m-2816 -25 c9
-19 9 -21 -2 -11 -10 10 -17 9 -35 -8 -14 -13 -24 -17 -29 -10 -9 16 3 31 26
31 10 0 19 5 19 10 0 17 9 11 21 -12z m2679 -25 c0 -2 -18 -10 -40 -19 -23 -9
-37 -21 -33 -27 3 -6 1 -7 -5 -3 -20 12 -13 26 19 40 28 12 59 17 59 9z m80
-4 c0 -5 4 -8 9 -4 11 6 81 -33 81 -46 0 -16 -26 -10 -45 11 -20 22 -40 27
-29 8 6 -10 4 -10 -7 0 -18 17 -27 15 -32 -5 -4 -14 -5 -12 -6 5 -1 15 -7 22
-21 22 -11 0 -20 5 -20 10 0 6 16 10 35 10 19 0 35 -5 35 -11z m-3444 -18 c-7
-10 -187 -84 -192 -78 -2 2 170 79 194 86 2 1 1 -3 -2 -8z m3384 -25 c0 -2 -7
-6 -15 -10 -8 -3 -15 -1 -15 4 0 6 7 10 15 10 8 0 15 -2 15 -4z m209 -12 c3
-3 0 -9 -6 -15 -15 -15 -43 -4 -43 16 0 12 6 15 23 9 12 -3 24 -8 26 -10z
m-414 -3 c-3 -6 4 -25 15 -43 11 -18 20 -37 20 -43 -1 -5 -10 7 -21 28 -18 33
-29 42 -51 38 -13 -2 -9 17 5 22 21 9 38 7 32 -2z m245 -27 c0 -8 -4 -12 -10
-9 -5 3 -10 10 -10 16 0 5 5 9 10 9 6 0 10 -7 10 -16z m70 -4 c-24 -19 -24
-19 -2 -13 30 7 30 -24 -1 -36 -13 -5 -29 -16 -36 -25 -7 -9 -18 -16 -24 -16
-6 0 -1 7 12 16 21 15 21 18 7 26 -9 5 -21 6 -27 2 -8 -4 -8 0 0 14 7 13 17
19 26 16 8 -4 15 -2 15 3 0 6 10 15 23 21 33 16 35 14 7 -8z m60 0 c0 -4 -6
-10 -14 -13 -12 -5 -14 2 -7 31 2 7 21 -10 21 -18z m103 0 c4 -17 2 -18 -15
-9 -17 9 -18 13 -7 20 8 5 15 9 15 9 1 0 4 -9 7 -20z m-45 -13 c3 -12 -1 -15
-13 -11 -10 4 -15 2 -13 -7 2 -7 -22 -27 -54 -44 -31 -17 -68 -41 -81 -53 -13
-12 -29 -22 -35 -22 -7 0 -12 -4 -12 -8 0 -5 -13 -7 -30 -4 -42 6 -27 22 21
22 21 0 39 4 39 9 0 4 25 24 55 44 30 20 64 50 77 67 23 32 41 34 46 7z m-203
-6 c2 -4 -4 -12 -14 -18 -14 -9 -20 -7 -29 7 -9 15 -7 18 14 18 13 0 26 -4 29
-7z m-3739 -37 c-39 -13 -77 -24 -85 -23 -19 0 117 47 139 47 8 0 -16 -10 -54
-24z m3921 -18 c-3 -8 -1 -17 6 -19 7 -2 -5 -12 -26 -22 -40 -19 -53 -16 -43
10 4 11 13 14 25 10 14 -4 21 0 26 15 3 11 9 20 12 20 3 0 3 -6 0 -14z m99
-12 c-3 -8 0 -11 10 -7 14 5 14 3 3 -16 -14 -22 -39 -29 -39 -10 0 5 -4 8 -9
5 -5 -3 -15 2 -22 11 -10 11 -10 14 -2 9 7 -4 21 -2 30 3 11 6 13 11 5 11 -7
0 -11 4 -7 10 8 14 37 0 31 -16z m-273 -26 c-2 -5 -10 -8 -16 -7 -9 0 -9 2 -1
5 7 3 10 15 8 27 -4 21 -4 21 5 2 4 -11 7 -23 4 -27z m331 21 c-6 -11 -24 -2
-24 11 0 5 7 7 15 4 8 -4 12 -10 9 -15z m-527 -14 c-4 -8 -12 -15 -19 -14 -10
0 -10 2 0 6 6 2 12 12 12 21 0 8 3 13 6 9 4 -3 4 -13 1 -22z m637 9 c5 -14 4
-15 -9 -4 -17 14 -19 20 -6 20 5 0 12 -7 15 -16z m-4264 -13 c0 -12 -26 -18
-155 -36 -181 -25 -191 -15 -15 15 91 15 166 28 168 29 1 0 2 -3 2 -8z m4131
-23 c1 -13 1 -27 0 -31 -1 -5 3 -5 9 -2 6 4 9 14 5 24 -4 10 -3 13 4 6 5 -5
12 -23 15 -40 5 -21 4 -24 -2 -10 -8 18 -9 18 -18 2 -13 -22 -36 -14 -51 18
-6 14 -7 23 -3 20 5 -3 11 4 15 15 9 27 25 25 26 -2z m-398 -15 c-7 -2 -19 -2
-25 0 -7 3 -2 5 12 5 14 0 19 -2 13 -5z m257 -14 c0 -5 -7 -9 -15 -9 -8 0 -15
7 -15 15 0 9 6 12 15 9 8 -4 15 -10 15 -15z m360 -49 c0 -6 -4 -10 -10 -10 -5
0 -10 5 -10 12 0 6 -6 3 -14 -8 -18 -24 -26 -16 -15 14 7 19 12 21 29 12 11
-6 20 -15 20 -20z m-287 4 c-4 -13 -26 -11 -30 3 -2 6 4 10 14 9 10 -2 17 -7
16 -12z m-63 -14 c0 -5 -7 -10 -16 -10 -8 0 -12 5 -9 10 3 6 10 10 16 10 5 0
9 -4 9 -10z m172 -3 c7 -8 19 -12 26 -9 16 5 102 -17 120 -31 6 -5 12 -15 12
-23 0 -9 -19 -4 -60 18 -33 16 -67 27 -76 24 -17 -7 -54 10 -54 24 0 14 16 12
32 -3z m-237 -17 c3 -5 1 -10 -4 -10 -6 0 -11 5 -11 10 0 6 2 10 4 10 3 0 8
-4 11 -10z m250 -29 c3 -5 1 -12 -5 -16 -5 -3 -10 1 -10 9 0 18 6 21 15 7z
m380 -32 c-2 -11 -14 -28 -27 -39 -13 -10 -20 -22 -16 -26 5 -4 16 0 26 9 15
14 19 14 19 3 0 -8 -3 -14 -6 -13 -3 0 -21 -7 -40 -17 -18 -10 -30 -13 -27 -8
4 6 1 14 -5 17 -7 5 -2 12 12 19 33 17 34 45 1 42 -19 -1 -27 -7 -26 -19 1 -9
-2 -17 -7 -17 -5 0 -6 -8 -3 -17 5 -16 4 -16 -5 -2 -6 9 -22 20 -36 23 -24 6
-27 26 -4 26 6 0 7 -4 4 -10 -3 -5 -2 -10 3 -10 11 0 25 30 14 31 -4 0 -16 2
-26 4 -11 2 -25 -4 -32 -13 -12 -16 -12 -15 -10 3 2 17 13 21 72 26 129 10
123 11 119 -12z m-315 -24 c0 -8 -4 -15 -10 -15 -5 0 -7 7 -4 15 4 8 8 15 10
15 2 0 4 -7 4 -15z m50 12 c0 -2 -8 -11 -18 -20 -16 -15 -18 -15 -18 3 0 13 7
20 18 20 10 0 18 -2 18 -3z m54 -23 c3 -8 2 -12 -4 -9 -6 3 -10 10 -10 16 0
14 7 11 14 -7z m-157 0 c-3 -3 -12 -4 -19 -1 -8 3 -5 6 6 6 11 1 17 -2 13 -5z
m253 -44 c0 -5 -8 -10 -17 -10 -15 0 -16 2 -3 10 19 12 20 12 20 0z m190 -50
l35 -7 -28 -11 c-23 -10 -31 -9 -43 3 -17 17 -28 20 -19 5 7 -11 -18 -14 -28
-3 -12 11 15 34 32 27 9 -4 32 -10 51 -14z m-315 -10 c-3 -5 -11 -10 -16 -10
-6 0 -7 5 -4 10 3 6 11 10 16 10 6 0 7 -4 4 -10z m420 -59 c-3 -2 -11 1 -17 7
-7 7 -18 12 -26 12 -12 0 -12 -3 -2 -15 14 -17 12 -18 -49 -20 -42 -1 -43 0
-22 15 12 8 32 25 44 36 l22 22 27 -26 c15 -14 26 -28 23 -31z m-205 38 c0 -5
-7 -9 -15 -9 -8 0 -15 -4 -15 -10 0 -5 -7 -7 -16 -3 -9 3 -20 0 -24 -7 -5 -8
-15 -10 -26 -6 -17 7 -17 9 6 21 14 7 28 11 32 9 3 -2 9 -1 12 4 7 11 46 13
46 1z m-4845 -98 c22 -10 73 -28 113 -40 91 -29 88 -38 -4 -15 -78 19 -200 72
-169 73 11 0 38 -8 60 -18z m5165 -11 c8 -5 11 -12 8 -16 -10 -9 -38 3 -38 16
0 12 10 13 30 0z m-45 -29 c-3 -6 -16 -11 -28 -11 -21 1 -21 1 3 15 27 14 36
13 25 -4z m125 -68 c0 -1 -27 -22 -61 -48 -33 -25 -57 -40 -52 -33 4 7 23 36
41 65 32 50 34 51 53 35 10 -9 19 -17 19 -19z m122 -61 c42 -43 68 -79 73
-101 8 -39 -3 -161 -15 -161 -20 0 -64 82 -126 235 -15 39 -32 76 -37 83 -7 9
-3 12 15 12 17 0 44 -20 90 -68z m-4914 51 c-10 -2 -28 -2 -40 0 -13 2 -5 4
17 4 22 1 32 -1 23 -4z m712 -342 c19 -10 73 -31 120 -46 47 -15 89 -31 94
-36 11 -9 -107 21 -176 46 -24 9 -63 23 -88 31 -25 9 -49 21 -55 26 -15 16 62
0 105 -21z m-495 -361 c33 -63 79 -140 103 -171 23 -31 42 -63 42 -71 0 -8
-24 -37 -52 -64 -59 -55 -139 -157 -168 -214 -11 -21 -33 -48 -50 -60 l-30
-21 -17 36 c-15 32 -16 47 -5 158 7 67 17 196 23 287 7 110 16 174 26 195 37
72 57 60 128 -75z"/>
<path d="M3120 8150 c0 -6 7 -10 15 -10 8 0 15 2 15 4 0 2 -7 6 -15 10 -8 3
-15 1 -15 -4z"/>
<path d="M2581 7254 c-10 -12 -10 -19 -2 -27 8 -8 11 -7 11 6 0 9 5 17 10 17
6 0 10 5 10 10 0 14 -13 12 -29 -6z"/>
<path d="M4997 5373 c-6 -10 48 -85 56 -77 3 3 -6 22 -19 42 -31 45 -31 45
-37 35z"/>
<path d="M4980 5339 c0 -5 5 -7 10 -4 6 3 10 8 10 11 0 2 -4 4 -10 4 -5 0 -10
-5 -10 -11z"/>
<path d="M6170 5152 c0 -4 -25 -21 -55 -37 -30 -15 -55 -30 -55 -32 0 -7 41 7
87 29 39 18 44 18 65 4 31 -22 48 -19 21 3 -13 11 -23 24 -23 30 0 6 -9 11
-20 11 -11 0 -20 -4 -20 -8z"/>
<path d="M6066 5123 c-6 -14 -5 -15 5 -6 7 7 10 15 7 18 -3 3 -9 -2 -12 -12z"/>
<path d="M6478 4983 c6 -2 18 -2 25 0 6 3 1 5 -13 5 -14 0 -19 -2 -12 -5z"/>
<path d="M6348 4873 c7 -3 16 -2 19 1 4 3 -2 6 -13 5 -11 0 -14 -3 -6 -6z"/>
<path d="M6382 4864 c-10 -11 -10 -14 -1 -14 7 0 20 -7 29 -15 15 -13 17 -13
17 0 0 8 -3 13 -6 10 -3 -3 -10 3 -15 14 -9 16 -13 17 -24 5z"/>
<path d="M6748 4639 c7 -9 9 -19 5 -22 -3 -4 -1 -7 5 -7 6 0 9 -7 6 -15 -4 -8
-10 -12 -15 -9 -5 3 -6 -2 -3 -10 3 -9 9 -16 13 -17 3 0 13 -2 22 -4 8 -1 24
4 34 11 17 12 17 14 2 14 -9 0 -17 -5 -17 -12 0 -6 -3 -8 -7 -4 -5 4 1 14 11
22 18 13 18 14 2 14 -10 0 -20 -9 -23 -20 -3 -11 -9 -17 -14 -14 -5 3 -4 14 2
26 9 17 7 24 -12 42 -13 11 -18 14 -11 5z"/>
<path d="M7015 4550 c10 -11 20 -18 23 -15 7 6 -18 35 -31 35 -5 0 -2 -9 8
-20z"/>
<path d="M7203 4519 c9 -6 14 -16 11 -22 -5 -9 -4 -9 6 0 15 14 5 33 -18 33
-15 -1 -15 -2 1 -11z"/>
<path d="M7120 4423 c8 -4 33 -21 56 -40 41 -33 61 -42 49 -22 -12 19 -88 69
-104 68 -14 0 -14 -1 -1 -6z"/>
<path d="M7390 4371 c0 -5 7 -12 16 -15 24 -9 28 -7 14 9 -14 17 -30 20 -30 6z"/>
<path d="M7438 4333 c-3 -4 6 -18 19 -30 28 -27 30 -20 4 13 -11 14 -21 21
-23 17z"/>
<path d="M7545 4260 c3 -5 18 -10 33 -10 21 0 24 2 12 10 -20 13 -53 13 -45 0z"/>
<path d="M7236 4215 c4 -8 11 -15 16 -15 6 0 5 6 -2 15 -7 8 -14 15 -16 15 -2
0 -1 -7 2 -15z"/>
<path d="M7166 4177 c3 -10 9 -15 12 -12 3 3 0 11 -7 18 -10 9 -11 8 -5 -6z"/>
<path d="M7336 4077 c3 -10 9 -15 12 -12 3 3 0 11 -7 18 -10 9 -11 8 -5 -6z"/>
<path d="M7920 3710 c0 -5 5 -10 11 -10 5 0 7 5 4 10 -3 6 -8 10 -11 10 -2 0
-4 -4 -4 -10z"/>
<path d="M6160 4740 c0 -5 5 -10 10 -10 6 0 10 5 10 10 0 6 -4 10 -10 10 -5 0
-10 -4 -10 -10z"/>
<path d="M6593 4692 c-9 -6 -7 -11 7 -20 12 -7 21 -8 25 -2 3 6 1 10 -5 10 -6
0 -8 5 -5 10 7 12 -5 13 -22 2z"/>
<path d="M6811 4434 c0 -11 3 -14 6 -6 3 7 2 16 -1 19 -3 4 -6 -2 -5 -13z"/>
<path d="M6777 4279 c7 -7 15 -10 18 -7 3 3 -2 9 -12 12 -14 6 -15 5 -6 -5z"/>
<path d="M1851 8581 c-20 -13 -23 -41 -4 -34 12 5 12 7 1 15 -9 7 -3 8 19 4
34 -6 54 8 27 18 -21 8 -26 7 -43 -3z"/>
<path d="M1883 8547 c-18 -6 -33 -15 -33 -20 0 -5 7 -6 16 -3 9 3 22 6 29 6 7
0 15 7 19 15 3 8 4 14 3 14 -1 -1 -17 -7 -34 -12z"/>
<path d="M1746 8538 c3 -4 9 -8 15 -8 5 0 9 4 9 8 0 5 -7 9 -15 9 -8 0 -12 -4
-9 -9z"/>
<path d="M1799 8503 c-13 -16 -12 -17 4 -4 16 13 21 21 13 21 -2 0 -10 -8 -17
-17z"/>
<path d="M1957 8480 c4 -15 0 -20 -16 -20 -11 0 -21 -4 -21 -10 0 -5 7 -7 15
-4 22 9 18 -14 -4 -26 -13 -7 -22 -7 -26 0 -3 5 -14 10 -23 10 -13 0 -13 -2 4
-15 10 -8 14 -15 8 -15 -7 0 -14 -7 -17 -14 -4 -11 -1 -13 11 -9 9 4 20 11 24
17 5 7 8 3 8 -8 0 -13 3 -16 13 -9 6 6 42 10 80 9 37 -1 67 2 67 5 0 9 -30 20
-39 15 -4 -3 -7 5 -7 17 1 14 -8 26 -21 32 -13 5 -23 13 -23 17 0 4 -9 12 -19
17 -16 9 -18 8 -14 -9z"/>
<path d="M1638 8473 c7 -3 16 -2 19 1 4 3 -2 6 -13 5 -11 0 -14 -3 -6 -6z"/>
<path d="M1813 8469 c-14 -14 -6 -39 12 -39 18 0 26 15 19 34 -7 19 -16 20
-31 5z"/>
<path d="M2575 8250 c3 -5 10 -10 16 -10 5 0 9 5 9 10 0 6 -7 10 -16 10 -8 0
-12 -4 -9 -10z"/>
<path d="M2688 8253 c7 -3 16 -2 19 1 4 3 -2 6 -13 5 -11 0 -14 -3 -6 -6z"/>
<path d="M1973 7963 c9 -9 20 -13 24 -9 4 4 1 11 -7 16 -25 16 -35 11 -17 -7z"/>
<path d="M1670 7960 c0 -5 5 -10 11 -10 5 0 7 5 4 10 -3 6 -8 10 -11 10 -2 0
-4 -4 -4 -10z"/>
<path d="M3730 7549 c0 -5 5 -7 10 -4 6 3 10 8 10 11 0 2 -4 4 -10 4 -5 0 -10
-5 -10 -11z"/>
<path d="M762 7470 c0 -14 4 -36 8 -50 l8 -25 0 25 c0 14 -4 36 -8 50 l-8 25
0 -25z"/>
<path d="M5285 7360 c-8 -13 20 -24 36 -15 8 6 7 10 -2 16 -18 11 -26 11 -34
-1z"/>
<path d="M7264 7245 c-8 -21 6 -41 17 -24 12 19 11 39 -1 39 -6 0 -13 -7 -16
-15z"/>
<path d="M3755 7210 c3 -5 8 -10 11 -10 2 0 4 5 4 10 0 6 -5 10 -11 10 -5 0
-7 -4 -4 -10z"/>
<path d="M4010 7210 c-11 -8 -7 -9 15 -4 37 8 45 14 19 14 -10 0 -26 -5 -34
-10z"/>
<path d="M3762 7181 c4 -13 18 -16 19 -4 0 4 -5 9 -11 12 -7 2 -11 -2 -8 -8z"/>
<path d="M3565 7150 c-8 -13 5 -13 25 0 13 8 13 10 -2 10 -9 0 -20 -4 -23 -10z"/>
<path d="M3945 7121 c-3 -5 6 -8 20 -7 35 4 44 16 12 16 -14 0 -28 -4 -32 -9z"/>
<path d="M3873 7107 c-13 -5 -23 -14 -23 -19 0 -5 10 -6 23 -2 27 8 30 10 26
22 -3 6 -13 5 -26 -1z"/>
<path d="M3910 7089 c0 -5 5 -7 10 -4 6 3 10 8 10 11 0 2 -4 4 -10 4 -5 0 -10
-5 -10 -11z"/>
<path d="M4440 7079 c0 -5 5 -7 10 -4 6 3 10 8 10 11 0 2 -4 4 -10 4 -5 0 -10
-5 -10 -11z"/>
<path d="M3960 7064 c0 -8 5 -12 10 -9 6 3 10 10 10 16 0 5 -4 9 -10 9 -5 0
-10 -7 -10 -16z"/>
<path d="M3995 7049 c-11 -16 -1 -19 13 -3 7 8 8 14 3 14 -5 0 -13 -5 -16 -11z"/>
<path d="M4027 6999 c7 -7 15 -10 18 -7 3 3 -2 9 -12 12 -14 6 -15 5 -6 -5z"/>
<path d="M4045 6975 c-40 -19 -16 -19 26 0 19 8 27 14 19 14 -8 0 -28 -7 -45
-14z"/>
<path d="M3900 6966 c0 -2 7 -6 15 -10 8 -3 15 -1 15 4 0 6 -7 10 -15 10 -8 0
-15 -2 -15 -4z"/>
<path d="M4010 6916 c0 -8 5 -18 10 -21 6 -4 8 -10 5 -15 -3 -4 4 -6 16 -3 11
3 17 9 12 12 -4 3 -16 14 -26 24 -14 15 -17 16 -17 3z"/>
<path d="M3920 6890 c0 -5 5 -10 11 -10 5 0 7 5 4 10 -3 6 -8 10 -11 10 -2 0
-4 -4 -4 -10z"/>
<path d="M4586 6832 c-3 -6 -1 -14 5 -17 15 -10 25 3 12 16 -7 7 -13 7 -17 1z"/>
<path d="M4106 6795 c4 -8 10 -15 15 -15 4 0 6 7 3 15 -4 8 -10 15 -15 15 -4
0 -6 -7 -3 -15z"/>
<path d="M7700 6742 c0 -15 24 -32 45 -32 19 0 18 2 -5 20 -27 21 -40 25 -40
12z"/>
<path d="M4177 6710 c3 -11 7 -20 9 -20 2 0 4 9 4 20 0 11 -4 20 -9 20 -5 0
-7 -9 -4 -20z"/>
<path d="M4715 6710 c3 -5 8 -10 11 -10 2 0 4 5 4 10 0 6 -5 10 -11 10 -5 0
-7 -4 -4 -10z"/>
<path d="M4260 6671 c0 -6 5 -13 10 -16 6 -3 10 1 10 9 0 9 -4 16 -10 16 -5 0
-10 -4 -10 -9z"/>
<path d="M4702 6654 c-7 -8 -8 -14 -3 -14 10 0 25 19 20 25 -2 1 -10 -3 -17
-11z"/>
<path d="M4330 6590 c0 -5 5 -10 10 -10 6 0 10 5 10 10 0 6 -4 10 -10 10 -5 0
-10 -4 -10 -10z"/>
<path d="M4386 6395 c4 -8 7 -15 9 -15 2 0 5 7 9 15 3 9 0 15 -9 15 -9 0 -12
-6 -9 -15z"/>
<path d="M9200 6061 c0 -30 5 -43 19 -51 30 -16 32 -13 29 38 -3 40 -6 47 -25
50 -21 3 -23 -1 -23 -37z"/>
<path d="M1171 6040 c3 -31 -1 -39 -17 -33 -14 5 -15 3 -5 -15 12 -23 60 -61
101 -82 l25 -13 -22 24 c-12 14 -36 49 -53 79 -17 30 -30 48 -29 40z"/>
<path d="M9430 6026 c0 -19 12 -27 78 -49 42 -15 80 -27 85 -27 4 0 7 11 7 24
0 25 -22 36 -132 65 -36 9 -38 8 -38 -13z"/>
<path d="M9288 6018 c-5 -28 6 -57 18 -45 4 3 3 21 -3 39 l-9 33 -6 -27z"/>
<path d="M9653 5905 c0 -22 2 -30 4 -17 2 12 2 30 0 40 -3 9 -5 -1 -4 -23z"/>
<path d="M9178 5635 c-2 -27 1 -44 7 -42 13 5 19 87 7 87 -6 0 -12 -20 -14
-45z"/>
<path d="M9250 5651 c0 -11 -6 -26 -13 -33 -8 -7 -17 -26 -21 -41 -7 -28 -30
-37 -39 -14 -3 6 -6 -16 -6 -50 -1 -35 3 -63 7 -63 9 0 75 46 111 77 11 9 18
20 15 25 -3 4 2 18 9 30 19 29 30 88 17 88 -5 0 -16 -15 -24 -34 -14 -34 -36
-56 -36 -36 0 6 5 21 11 32 9 16 8 23 -2 29 -21 13 -29 11 -29 -10z"/>
<path d="M9341 5546 c-51 -108 -68 -126 -121 -126 -39 0 -36 -20 6 -32 56 -17
68 -18 105 -8 53 15 157 136 159 187 0 9 -7 10 -25 3 -27 -10 -28 -10 -44 43
-7 20 -17 37 -22 37 -5 0 -31 -47 -58 -104z"/>
<path d="M9583 5371 c-3 -37 9 -46 39 -29 13 7 46 15 73 18 47 6 48 7 24 17
-14 6 -50 14 -80 18 l-54 7 -2 -31z"/>
<path d="M1940 3963 c43 -34 186 -103 213 -103 23 0 107 -44 107 -56 0 -12 80
-34 123 -34 20 1 19 3 -13 31 -84 72 -136 98 -272 133 -73 19 -144 37 -158 41
l-25 8 25 -20z"/>
<path d="M4914 381 c-195 -5 -233 -9 -247 -22 -33 -34 46 -39 555 -38 518 1
695 12 633 39 -57 25 -439 33 -941 21z"/>
</g>
</svg>
