<?xml version="1.0" standalone="no"?>
<!DOCTYPE svg PUBLIC "-//W3C//DTD SVG 20010904//EN"
 "http://www.w3.org/TR/2001/REC-SVG-20010904/DTD/svg10.dtd">
<svg version="1.0" xmlns="http://www.w3.org/2000/svg"
 width="1024.000000pt" height="1024.000000pt" viewBox="0 0 1024.000000 1024.000000"
 preserveAspectRatio="xMidYMid meet">

<g transform="translate(0.000000,1024.000000) scale(0.100000,-0.100000)"
fill="#000000" stroke="none">
<path d="M3950 8300 c-269 -22 -815 -156 -1068 -261 -176 -73 -278 -136 -374
-230 -49 -47 -88 -92 -88 -98 0 -7 21 7 47 32 27 25 73 62 103 81 40 27 46 29
22 9 -79 -67 -132 -127 -169 -190 -22 -38 -42 -78 -46 -88 -93 -295 -100 -332
-105 -575 -4 -221 8 -378 31 -407 6 -9 6 -13 -1 -13 -7 0 -9 -7 -5 -17 4 -11
8 -12 11 -5 9 29 20 7 25 -55 7 -75 15 -88 50 -79 34 8 75 72 103 161 38 120
33 140 -36 144 -33 1 -52 9 -72 28 -57 55 -27 72 54 32 63 -32 68 -33 68 -21
0 5 -19 17 -41 28 -59 26 -87 50 -110 96 -28 54 -19 95 31 154 22 25 40 48 40
52 0 15 165 175 225 217 91 65 123 76 226 76 49 0 94 -3 99 -6 5 -3 65 -6 132
-6 102 0 130 -3 165 -20 22 -11 44 -27 47 -35 3 -9 -15 -58 -41 -110 -37 -76
-46 -103 -44 -141 1 -26 8 -54 16 -63 8 -9 15 -23 15 -31 0 -8 11 -23 25 -33
14 -10 25 -23 25 -27 0 -5 8 -17 18 -27 9 -10 26 -29 37 -43 56 -68 209 -165
311 -197 89 -28 232 -46 304 -38 52 5 72 9 130 21 14 3 36 7 49 10 12 2 28 9
35 14 6 5 40 19 76 31 36 13 69 26 74 31 6 5 17 9 25 9 30 0 152 119 343 330
104 115 147 149 214 169 45 14 152 11 188 -4 14 -6 17 -5 12 3 -4 7 -2 10 7 7
16 -7 11 -62 -8 -85 -7 -8 -18 -32 -25 -52 -6 -21 -15 -38 -20 -38 -4 0 -13
-13 -20 -29 -6 -16 -29 -46 -51 -68 -22 -21 -46 -49 -54 -63 -8 -14 -28 -40
-45 -57 -17 -18 -28 -33 -25 -33 4 0 -15 -20 -41 -45 -27 -24 -46 -47 -42 -50
3 -3 11 1 18 10 7 8 17 15 23 15 5 0 0 -9 -13 -20 -12 -11 -27 -17 -32 -14
-11 7 -80 -55 -73 -65 2 -4 -8 -7 -22 -6 -14 0 -28 -7 -31 -15 -5 -13 -3 -13
11 -1 11 9 17 10 17 2 0 -11 -13 -15 -37 -12 -7 1 -13 -4 -13 -11 -1 -7 -19
-26 -42 -41 -32 -22 -38 -31 -27 -38 14 -8 12 -10 -13 -13 -7 -1 -12 -8 -10
-15 2 -9 -3 -11 -13 -7 -10 4 -14 2 -9 -5 4 -7 0 -9 -14 -5 -20 7 -34 -5 -39
-33 -2 -18 -24 -32 -37 -24 -5 3 -6 1 -3 -4 4 -6 -3 -19 -15 -29 -12 -11 -18
-14 -15 -7 4 6 2 15 -4 19 -7 4 -9 3 -5 -4 3 -6 -4 -18 -16 -27 -13 -8 -23
-21 -23 -28 0 -6 -4 -12 -10 -13 -14 -1 -44 -13 -82 -32 -30 -15 -37 -24 -34
-44 0 -5 -3 -8 -9 -8 -5 0 -10 6 -11 13 0 6 -4 2 -9 -10 -5 -13 -34 -39 -65
-58 -30 -20 -55 -42 -55 -51 0 -8 -5 -12 -10 -9 -15 9 -42 -15 -36 -32 4 -10
1 -11 -13 -3 -14 7 -20 6 -25 -5 -3 -8 -11 -15 -19 -15 -7 0 -24 -11 -37 -25
-13 -14 -32 -25 -42 -25 -10 0 -18 -4 -18 -8 0 -5 -21 -19 -47 -32 -27 -13
-69 -45 -95 -72 -26 -26 -50 -48 -54 -48 -8 0 -70 -50 -134 -109 -25 -22 -50
-41 -56 -41 -6 0 -19 -9 -28 -19 -10 -11 -40 -28 -67 -37 -27 -10 -49 -22 -49
-26 0 -4 -9 -8 -20 -8 -11 0 -20 -5 -20 -10 0 -6 -8 -13 -17 -17 -10 -3 -31
-16 -48 -27 -16 -12 -39 -26 -50 -32 -46 -25 -101 -57 -110 -64 -15 -11 -115
-66 -192 -104 -121 -61 -243 -69 -356 -25 -60 24 -181 107 -243 167 -7 6 -16
12 -21 12 -23 0 -83 64 -93 98 -18 65 -12 171 15 270 14 51 23 98 19 104 -5 7
-3 8 6 3 10 -6 12 -4 7 8 -3 9 -1 17 5 19 6 2 1 21 -13 48 -19 38 -24 41 -27
23 -3 -23 -32 -54 -32 -35 0 6 5 12 10 14 7 2 5 16 -5 40 -18 43 -19 62 -5 53
7 -4 8 3 4 22 -4 15 -8 30 -10 32 -2 2 -17 -25 -33 -60 -115 -254 -106 -431
32 -619 76 -103 158 -167 307 -237 132 -63 197 -81 424 -113 80 -12 194 3 253
34 56 28 182 135 390 331 171 162 374 349 453 421 30 27 77 70 105 95 27 26
79 72 115 104 36 32 64 62 62 67 -1 5 2 7 6 4 11 -6 128 94 124 106 -1 4 2 7
7 6 15 -5 92 63 85 74 -5 7 -2 8 5 4 7 -5 23 2 39 17 15 15 41 38 57 52 17 16
23 24 13 21 -10 -3 -18 0 -18 5 0 7 9 9 22 6 16 -5 38 7 87 49 36 31 89 74
116 97 28 23 70 60 95 83 25 22 106 92 180 154 74 63 137 117 140 120 3 3 39
33 80 67 90 73 156 140 147 149 -11 11 23 65 36 58 7 -4 9 -4 5 0 -3 4 7 36
23 72 111 245 18 540 -219 698 -153 101 -406 177 -742 221 -131 17 -484 26
-610 15z m289 -839 c61 -32 131 -106 165 -176 41 -83 48 -199 17 -266 -31 -66
-105 -135 -186 -174 -126 -61 -358 -117 -419 -101 -16 4 -27 9 -25 11 2 2 47
10 99 19 109 19 286 77 340 111 75 47 130 142 130 222 0 29 -23 86 -63 158 -6
11 -22 41 -35 68 -13 26 -27 45 -32 42 -4 -3 -10 5 -13 17 -6 20 -10 21 -76
15 -200 -17 -457 -247 -487 -436 -4 -24 -16 -53 -26 -63 -10 -10 -16 -23 -13
-28 3 -5 -1 -7 -9 -4 -8 3 -26 -2 -40 -11 -50 -33 -74 -6 -95 110 -16 88 -1
137 78 260 51 79 118 155 137 155 6 0 14 7 18 15 3 8 10 15 16 15 6 0 8 -6 4
-12 -5 -9 -3 -9 9 1 9 7 14 18 10 25 -4 6 1 5 10 -3 9 -7 17 -9 17 -3 0 9 48
33 79 39 9 1 36 7 61 12 25 5 99 9 165 7 102 -2 126 -6 164 -25z m-41 -221
c37 -23 42 -54 11 -71 -17 -9 -26 -7 -47 8 -34 25 -47 47 -39 67 8 21 35 20
75 -4z m-232 -125 c8 -20 -43 -105 -64 -106 -24 -2 -66 2 -71 7 -11 10 27 68
58 90 41 27 69 31 77 9z m288 -62 c-23 -17 -34 -17 -34 1 0 7 10 20 23 29 20
13 22 13 26 -1 2 -9 -5 -22 -15 -29z m270 -611 c2 -4 -4 -9 -15 -9 -11 -1 -17
2 -14 8 7 11 22 12 29 1z m-364 -292 c-8 -5 -19 -10 -25 -10 -5 0 -3 5 5 10 8
5 20 10 25 10 6 0 3 -5 -5 -10z m-1995 -60 c3 -5 1 -10 -4 -10 -6 0 -11 5 -11
10 0 6 2 10 4 10 3 0 8 -4 11 -10z"/>
<path d="M6687 7585 c-7 -207 -6 -204 -54 -344 -40 -119 -82 -207 -156 -331
-105 -175 -323 -461 -388 -509 l-31 -23 17 26 c17 25 12 32 -17 27 -5 0 -8 6
-8 15 0 8 -4 13 -9 9 -5 -3 -12 5 -14 17 -2 13 -5 -6 -6 -41 -1 -51 2 -62 13
-58 10 4 13 1 9 -9 -3 -7 -9 -14 -15 -14 -5 0 -6 -5 -3 -10 4 -6 3 -10 -2 -9
-4 1 -87 -76 -183 -172 -96 -96 -206 -200 -245 -231 -64 -51 -369 -252 -758
-501 -85 -54 -169 -112 -188 -129 -19 -16 -27 -25 -18 -19 15 10 18 5 24 -50
5 -38 3 -65 -3 -71 -17 -17 -58 -1 -70 27 -11 25 -11 26 10 20 18 -5 20 -4 8
4 -8 6 -26 7 -39 4 -18 -4 -22 -3 -16 7 6 9 4 10 -7 4 -7 -5 -69 -42 -136 -82
-67 -41 -120 -78 -116 -83 3 -5 -3 -6 -12 -2 -11 4 -15 2 -11 -4 4 -6 -1 -10
-11 -9 -10 0 -16 -5 -14 -13 2 -7 -5 -22 -14 -32 -9 -11 -13 -19 -9 -19 5 0 4
-5 -3 -12 -7 -7 -12 -25 -12 -40 0 -15 -4 -28 -10 -28 -5 0 -10 -4 -10 -10 0
-5 7 -10 15 -10 8 0 15 -4 15 -10 0 -14 -37 -12 -43 3 -3 6 -6 0 -6 -15 -1
-20 3 -26 14 -22 19 8 19 -15 1 -58 -8 -18 -22 -53 -32 -77 -11 -25 -29 -55
-41 -67 -13 -13 -23 -27 -23 -31 0 -15 -39 -43 -59 -43 -37 0 -51 -12 -57 -51
-7 -43 -16 -46 -74 -28 -19 5 -43 12 -53 14 -11 2 -84 20 -164 40 -128 32
-149 34 -179 23 -19 -6 -34 -16 -34 -21 0 -5 8 -6 18 -2 36 15 56 15 23 1 -18
-9 -44 -16 -56 -16 -13 0 -36 -5 -52 -11 -21 -8 -134 -18 -215 -19 -4 0 -2
-15 3 -32 12 -44 -6 -130 -34 -160 -12 -13 -29 -36 -37 -53 -8 -16 -20 -37
-26 -45 -7 -8 -18 -35 -25 -60 -13 -48 -20 -180 -10 -180 9 0 32 -104 28 -121
-2 -8 -2 -11 0 -6 3 4 9 5 14 1 13 -8 11 -68 -3 -82 -7 -7 -9 -12 -5 -12 3 0
34 25 68 55 57 51 101 84 279 207 36 24 106 67 155 95 88 49 302 153 314 153
15 -1 -41 -34 -130 -77 -98 -46 -129 -73 -86 -73 18 0 19 2 7 10 -8 5 -10 10
-4 10 5 0 19 -7 30 -15 18 -15 18 -15 0 -8 -13 4 -17 3 -12 -5 4 -7 18 -12 32
-12 13 0 24 -4 24 -9 0 -5 14 -12 31 -16 28 -6 30 -9 24 -38 -4 -18 -28 -84
-53 -147 -42 -105 -46 -123 -46 -202 -1 -101 7 -89 -131 -172 -122 -72 -245
-136 -263 -136 -30 0 -120 61 -176 119 -67 71 -99 137 -94 192 2 21 0 39 -4
39 -5 0 -8 -7 -8 -15 0 -8 -4 -15 -9 -15 -9 0 -22 -52 -26 -103 -1 -15 -5 -30
-8 -34 -4 -3 -2 -12 3 -18 7 -9 6 -27 -5 -57 -8 -25 -14 -68 -14 -97 1 -29 -3
-57 -10 -64 -14 -14 -15 -104 -1 -109 6 -2 19 -44 29 -93 11 -49 24 -91 30
-93 6 -2 11 -15 11 -28 0 -13 5 -24 10 -24 6 0 10 -6 10 -13 0 -7 9 -20 20
-30 11 -9 20 -24 20 -32 0 -8 11 -25 25 -37 14 -12 25 -30 25 -40 0 -10 28
-45 63 -78 34 -34 78 -76 97 -95 20 -19 43 -35 53 -35 9 0 24 -11 33 -25 9
-13 26 -27 37 -30 12 -4 36 -13 52 -20 17 -8 41 -19 55 -25 116 -52 184 -105
236 -183 46 -69 128 -157 146 -157 5 0 6 -6 3 -13 -4 -6 3 -1 14 12 39 44 56
125 55 261 0 139 -13 188 -85 330 -53 105 -141 234 -135 197 3 -16 1 -25 -5
-22 -5 4 -7 10 -4 14 2 5 -3 17 -11 27 -9 10 -12 12 -8 4 7 -12 5 -13 -8 -3
-8 7 -29 40 -47 74 -32 61 -33 91 -3 67 12 -10 14 -10 8 -1 -5 9 -2 11 8 7 9
-3 16 -12 16 -18 0 -7 10 -18 23 -24 87 -43 221 -96 318 -127 63 -20 132 -43
154 -51 23 -8 48 -14 57 -14 16 0 65 -14 188 -53 79 -25 309 -31 347 -9 18 10
40 10 105 2 46 -6 110 -14 143 -17 37 -4 67 -13 79 -25 11 -10 26 -18 33 -18
8 0 27 -9 42 -21 22 -16 39 -20 70 -16 22 2 39 1 37 -2 -2 -3 2 -15 10 -26 8
-10 14 -16 14 -14 0 10 -104 302 -130 364 -5 11 -11 27 -13 35 -3 8 -6 2 -6
-15 -1 -20 -4 -26 -10 -17 -6 11 -9 9 -13 -6 -4 -14 -17 -22 -49 -27 -52 -7
-142 -32 -184 -50 -16 -7 -40 -16 -52 -19 -22 -7 -78 -65 -70 -73 5 -5 93 -20
212 -38 71 -10 80 -13 44 -14 -26 -1 -82 5 -125 13 -44 8 -104 18 -134 21 -91
12 -217 53 -337 110 -230 109 -349 218 -569 520 -12 17 -47 55 -78 84 -46 45
-56 62 -62 99 -6 42 -2 55 62 181 71 141 94 176 94 146 0 -9 5 -13 10 -10 5 3
10 2 10 -4 0 -6 12 -14 28 -17 15 -4 29 -10 32 -15 3 -4 19 -8 35 -10 17 -2
36 -7 43 -12 6 -5 157 -11 334 -13 177 -2 324 -6 327 -9 2 -3 -3 -38 -12 -78
-10 -40 -16 -81 -14 -92 6 -31 29 -75 40 -75 5 0 7 -7 3 -15 -3 -8 -1 -15 4
-15 6 0 10 -8 10 -18 0 -28 79 -141 154 -220 64 -68 212 -179 224 -168 15 16
-13 55 -60 83 -115 70 -288 280 -318 387 -11 40 -10 53 9 113 31 100 28 98
118 95 89 -3 135 -10 144 -24 3 -5 9 17 13 49 9 78 62 289 98 393 50 142 166
330 204 330 9 0 12 5 8 12 -4 7 -3 8 4 4 6 -4 25 6 42 21 40 35 179 108 245
127 138 41 310 43 501 7 168 -32 170 -33 412 -148 78 -37 247 -165 300 -229
106 -126 165 -236 197 -366 11 -43 23 -78 27 -78 4 0 8 -13 8 -29 0 -16 6 -31
13 -34 7 -2 8 -8 3 -13 -5 -5 -11 -4 -13 4 -6 14 -63 16 -63 2 0 -6 -10 -4
-23 4 -25 17 -154 38 -202 34 -17 -1 -37 2 -44 7 -11 6 -13 4 -7 -10 18 -47
57 -314 66 -445 11 -167 33 -334 55 -421 9 -33 19 -89 22 -125 5 -54 9 -64 24
-64 11 0 19 4 19 9 0 4 21 16 48 26 48 19 74 42 68 61 -2 6 2 11 9 11 9 0 5
-15 -13 -48 -26 -46 -87 -89 -127 -89 -7 0 -16 -4 -19 -9 -8 -12 4 -41 16 -41
5 0 7 4 4 9 -3 5 1 14 9 21 8 7 15 9 15 5 0 -4 7 -2 15 5 12 10 15 10 15 -4 0
-10 -9 -16 -22 -17 -19 -1 -20 -2 -5 -6 16 -4 18 -11 12 -41 -23 -119 -24
-179 -4 -167 4 3 37 -38 73 -92 35 -54 87 -125 115 -158 101 -120 144 -182
181 -260 41 -87 78 -128 176 -194 148 -99 266 -120 263 -46 0 20 0 20 -9 0 -8
-17 -8 -16 -7 7 1 21 6 27 17 23 11 -3 20 4 28 22 l11 28 -5 -33 c-5 -30 -3
-33 43 -53 70 -32 219 -31 326 1 72 21 76 24 57 37 -11 8 -20 20 -20 28 0 7
-6 16 -12 19 -10 5 -10 7 -1 12 8 4 3 22 -19 62 -16 31 -32 59 -35 62 -3 3
-84 5 -181 5 -204 1 -234 9 -321 90 -26 25 -51 45 -54 45 -8 0 -77 71 -77 80
0 4 -7 14 -17 21 -9 8 -26 34 -37 59 -12 25 -29 57 -39 71 -38 57 -67 151 -67
220 0 37 4 70 9 74 5 3 13 35 16 71 7 58 12 70 44 103 60 61 132 106 208 131
24 7 45 21 48 32 4 10 18 21 32 24 14 4 45 22 69 40 24 19 51 34 59 34 8 0 15
4 15 10 0 5 17 17 38 27 40 18 84 47 116 76 11 9 38 23 61 29 22 7 50 18 63
26 20 13 26 12 60 -11 20 -13 51 -27 67 -30 l30 -6 -27 12 c-45 18 -32 27 40
28 37 0 76 4 87 9 12 5 -6 6 -45 3 l-65 -4 82 34 c45 19 122 58 172 87 49 29
95 50 101 48 7 -2 1 -19 -15 -43 l-26 -40 45 45 c25 25 45 49 46 53 0 14 -59
-3 -144 -39 -59 -25 -83 -31 -95 -23 -13 8 -13 9 4 5 16 -5 20 0 22 22 2 27
-34 74 -93 122 -31 26 -115 49 -141 39 -46 -17 -21 7 51 50 140 83 259 217
282 316 4 18 -6 6 -26 -32 -46 -91 -158 -199 -260 -252 -80 -42 -113 -48 -73
-14 20 18 20 20 4 69 -15 48 -47 100 -79 127 -7 7 -23 21 -35 32 -12 11 -26
19 -30 17 -4 -1 -10 5 -13 13 -4 8 -12 15 -20 15 -7 0 -18 8 -23 18 -5 10 -21
24 -35 31 -14 8 -23 18 -20 23 3 4 -2 8 -10 8 -9 0 -16 6 -16 14 0 8 -5 16
-12 18 -6 2 35 27 93 55 119 58 215 138 248 206 26 54 42 135 29 143 -14 9
-25 -12 -32 -63 -3 -25 -15 -62 -27 -82 -42 -74 -207 -179 -303 -194 -35 -6
-37 -5 -20 8 16 13 17 14 2 9 -11 -4 -18 -1 -18 7 0 14 -145 159 -159 159 -5
0 -38 30 -73 66 -35 36 -74 76 -88 87 -14 12 -52 49 -85 83 -33 33 -68 65 -78
70 -14 8 -5 18 61 61 76 50 79 52 126 149 52 108 62 140 52 180 -6 21 -10 24
-19 15 -7 -7 -12 -15 -13 -19 -1 -20 -38 -131 -54 -162 -21 -40 -81 -102 -130
-133 -26 -17 -32 -18 -28 -6 5 13 1 15 -20 12 -21 -4 -24 -2 -12 6 13 10 13
11 0 11 -18 0 -289 213 -415 326 -22 19 -60 52 -84 72 -54 45 -95 86 -129 131
-23 29 -27 31 -33 15 -4 -11 -8 52 -8 138 -1 87 -6 189 -13 227 -14 84 0 177
38 254 14 27 22 53 17 58 -5 5 -43 24 -86 42 -42 19 -75 36 -72 39 3 3 -14 10
-37 17 -59 18 -470 184 -433 175 17 -4 48 -8 70 -9 38 -3 111 -29 215 -77 25
-11 92 -38 150 -60 58 -22 136 -55 174 -74 48 -23 72 -30 77 -23 8 14 16 82
29 264 6 77 19 246 31 375 11 129 23 265 26 303 4 46 1 72 -7 82 -7 8 -10 21
-7 29 3 8 -1 22 -8 33 -8 10 -15 28 -15 40 0 12 -6 23 -12 25 -8 3 -4 10 10
17 34 18 62 49 62 67 0 14 -2 15 -16 3 -15 -12 -16 -11 -9 11 4 14 4 22 0 18
-7 -6 -65 17 -65 26 0 2 18 0 40 -4 27 -5 40 -4 40 4 0 6 5 4 10 -4 7 -11 10
-11 10 -2 0 7 4 11 9 7 5 -3 16 2 24 10 9 8 27 15 42 15 24 0 25 -1 11 -16 -9
-8 -16 -19 -16 -24 0 -4 -11 -89 -24 -187 -14 -98 -37 -281 -51 -408 -14 -126
-30 -259 -35 -295 -5 -36 -10 -85 -11 -110 l-2 -45 -6 40 c-5 28 -9 -1 -15
-100 -4 -77 -8 -151 -9 -165 -1 -14 -8 -29 -15 -33 -10 -6 -7 -13 12 -28 13
-10 28 -19 34 -19 5 0 22 -10 38 -22 l29 -22 -20 23 c-11 13 -33 32 -50 42
-18 11 -24 19 -14 19 21 0 172 -107 361 -255 209 -165 275 -212 403 -291 269
-164 341 -203 643 -346 57 -26 128 -64 158 -83 30 -19 57 -35 60 -35 11 0 45
92 60 166 19 93 16 131 -27 348 -31 160 -56 249 -42 151 4 -27 6 -66 6 -85 -1
-25 1 -30 7 -20 8 13 10 13 10 0 0 -19 -35 -50 -57 -50 -12 0 -9 -6 11 -25 23
-21 34 -45 21 -45 -9 0 -130 42 -162 56 -17 8 -35 14 -41 14 -5 0 -13 7 -16
16 -4 9 -9 14 -12 11 -10 -10 -204 90 -204 106 0 13 31 7 58 -11 15 -10 47
-24 71 -31 23 -7 49 -15 57 -18 8 -3 14 0 14 6 0 6 -5 11 -12 11 -6 0 -19 6
-27 13 -9 8 -36 22 -61 31 -24 10 -64 31 -88 47 -24 16 -47 29 -53 29 -5 0 -9
9 -9 20 0 17 3 18 26 10 40 -15 40 -12 -1 20 -55 43 -98 137 -135 295 -12 50
-26 104 -31 120 -7 24 -44 177 -83 345 -10 41 -101 288 -112 305 -8 11 -14 31
-14 45 0 14 -9 39 -19 57 -19 31 -19 31 0 49 13 12 23 14 30 7 7 -7 4 -14 -7
-24 -15 -12 -16 -12 -10 0 6 9 5 12 -3 10 -7 -3 -11 -9 -9 -14 3 -10 6 -10 47
-1 20 4 49 -21 196 -167 240 -240 352 -397 455 -639 19 -43 35 -76 37 -74 6 6
-97 242 -130 298 -18 29 -65 96 -104 148 -99 133 -378 430 -403 430 -6 0 -8 5
-5 10 4 6 38 -19 77 -57 88 -85 64 -60 261 -267 166 -173 170 -176 210 -176
37 1 40 2 25 14 -10 7 -18 17 -18 21 0 4 -10 21 -22 38 -25 34 -43 63 -55 87
-4 8 -33 48 -65 88 -32 40 -58 77 -58 82 0 5 -11 20 -24 33 -14 14 -22 28 -19
31 4 3 0 6 -7 6 -7 0 -11 3 -7 6 3 4 -13 26 -36 51 -23 24 -48 55 -57 68 -8
13 -29 36 -45 51 -17 15 -30 31 -30 34 0 9 -28 36 -40 37 -5 1 -12 9 -15 18
-3 9 -9 16 -13 16 -4 -1 -6 0 -4 2 3 3 -84 82 -92 83 -34 5 -198 91 -246 129
-22 17 -53 39 -68 49 -16 10 -27 20 -24 22 6 6 57 -16 79 -34 11 -9 22 -11 34
-4 14 8 10 14 -27 39 -24 16 -73 47 -109 68 -36 21 -71 45 -77 53 -7 9 -15 13
-19 10 -3 -3 -14 -56 -23 -117 -10 -62 -21 -114 -24 -118 -3 -3 -18 -2 -32 1
-22 6 -24 10 -15 21 6 7 14 40 17 72 3 32 9 65 14 74 12 24 -1 32 -18 11 -13
-15 -13 -15 -3 6 13 26 1 53 -26 60 -35 8 -92 2 -128 -13 -38 -16 -44 -15
-131 25 -72 34 -143 96 -154 136 -5 19 -10 -35 -14 -151z m1084 -452 c13 -16
12 -17 -3 -4 -10 7 -18 15 -18 17 0 8 8 3 21 -13z m-201 -23 c8 -5 12 -11 10
-14 -3 -2 -14 2 -24 10 -22 15 -10 19 14 4z m118 -97 c43 -43 7 -22 -48 29
-46 42 -48 46 -15 23 22 -15 50 -39 63 -52z m-63 18 c3 -5 2 -12 -3 -15 -5 -3
-9 1 -9 9 0 17 3 19 12 6z m-1537 -1041 c150 -33 506 -140 531 -158 59 -43 59
-48 54 -284 -4 -151 -9 -218 -17 -218 -29 0 -256 172 -256 194 0 4 -18 25 -40
46 -22 21 -40 41 -40 44 0 3 -9 15 -21 27 -11 11 -18 27 -15 35 5 14 -27 71
-49 86 -45 30 -50 38 -35 48 8 5 25 10 38 10 33 0 27 15 -20 49 -24 17 -47 34
-53 39 -5 4 -28 15 -50 24 -22 10 -33 17 -25 18 8 0 -14 14 -50 30 -77 35 -69
37 48 10z m1005 -1371 c4 -14 11 -20 21 -16 8 3 17 -1 20 -9 3 -8 14 -14 24
-14 10 0 25 -11 32 -25 7 -14 18 -25 24 -25 14 0 86 -68 86 -81 0 -5 8 -9 18
-9 10 0 36 -17 58 -38 49 -48 103 -86 111 -78 3 3 12 1 20 -5 7 -6 13 -9 13
-6 0 3 15 -7 32 -24 18 -16 36 -29 40 -29 17 0 72 -57 111 -115 23 -33 46 -65
51 -71 29 -31 46 -55 46 -65 0 -5 5 -7 10 -4 6 3 10 -1 10 -9 0 -9 3 -16 8
-16 4 0 34 -26 67 -57 33 -32 93 -87 132 -121 39 -35 76 -77 82 -93 5 -16 15
-29 22 -29 7 0 10 -3 6 -6 -3 -4 0 -13 8 -20 16 -16 29 -19 20 -4 -3 6 -4 10
-1 10 3 0 7 -4 11 -10 6 -9 -49 -43 -57 -35 -2 3 -29 -4 -59 -15 -61 -23 -62
-23 -55 -12 9 15 -93 -4 -111 -20 -10 -9 -33 -19 -50 -23 -18 -3 -35 -11 -38
-16 -4 -5 2 -6 11 -2 12 4 15 3 10 -6 -5 -8 -19 -10 -39 -6 -25 5 -29 4 -17
-5 12 -8 9 -9 -11 -4 -15 3 -30 1 -34 -5 -24 -40 -188 -55 -267 -25 -49 19
-98 61 -98 82 0 8 -8 22 -17 31 -22 19 -63 100 -63 122 0 8 -6 24 -14 34 -15
21 -3 61 14 50 6 -3 21 5 34 19 13 14 28 26 35 26 14 0 14 17 -1 96 -7 39 -16
64 -24 64 -7 0 -16 17 -20 38 -4 20 -15 57 -24 82 -29 74 -142 303 -156 318
-8 7 -14 19 -14 26 0 6 -8 28 -19 48 -20 41 -34 111 -24 121 12 12 21 7 26
-14z m-3093 -149 c0 -5 -5 -10 -11 -10 -5 0 -7 5 -4 10 3 6 8 10 11 10 2 0 4
-4 4 -10z m-173 -928 c17 -15 56 -68 86 -118 55 -94 189 -269 212 -278 7 -2
22 -18 34 -34 l21 -30 -47 4 c-26 3 -60 11 -75 19 -19 9 -26 10 -21 2 5 -9 3
-9 -8 -1 -8 6 -24 11 -37 12 -13 0 -45 8 -72 17 -26 9 -59 18 -72 21 -12 2
-50 11 -83 20 -33 8 -80 18 -105 20 -25 3 -61 15 -81 26 -20 11 -43 18 -50 15
-10 -4 -10 -6 2 -6 9 -1 19 -7 22 -15 5 -11 0 -11 -23 2 -16 9 -28 21 -27 27
1 5 -6 9 -17 7 -12 -2 -16 1 -10 9 4 8 3 10 -4 5 -10 -6 -132 48 -132 59 0 3
48 30 108 60 59 30 159 84 222 120 63 36 117 65 120 65 3 0 19 -13 37 -28z
m3260 -359 l113 -28 -7 -35 c-8 -46 -40 -120 -61 -144 -9 -10 -30 -25 -45 -33
-27 -13 -28 -13 -18 4 5 10 19 28 31 41 12 13 23 29 24 35 1 7 14 36 29 65 32
61 21 71 -12 12 -29 -52 -37 -52 -11 1 20 38 20 41 3 45 -61 17 -186 62 -173
63 8 1 66 -11 127 -26z m-2647 -323 c11 -7 5 -8 -20 -4 -43 8 -51 14 -19 14
13 0 31 -5 39 -10z m99 -10 c17 0 31 -4 31 -10 0 -18 -54 -10 -80 11 -21 17
-22 19 -3 10 12 -6 35 -11 52 -11z m139 -27 c-15 -2 -42 -2 -60 0 -18 2 -6 4
27 4 33 0 48 -2 33 -4z m469 -9 c-3 -3 -12 -4 -19 -1 -8 3 -5 6 6 6 11 1 17
-2 13 -5z"/>
<path d="M7150 7578 c0 -9 7 -22 17 -29 15 -13 15 -12 3 11 -17 34 -20 36 -20
18z"/>
<path d="M7181 7574 c0 -11 3 -14 6 -6 3 7 2 16 -1 19 -3 4 -6 -2 -5 -13z"/>
<path d="M7530 7386 c0 -2 8 -10 18 -17 15 -13 16 -12 3 4 -13 16 -21 21 -21
13z"/>
<path d="M7610 7315 c13 -14 26 -25 28 -25 3 0 -5 11 -18 25 -13 14 -26 25
-28 25 -3 0 5 -11 18 -25z"/>
<path d="M5693 7310 c-12 -5 -26 -18 -32 -28 -9 -17 -1 -25 72 -70 166 -101
235 -185 274 -334 17 -67 23 -117 23 -196 0 -58 2 -103 5 -100 7 7 6 267 0
318 -2 19 -7 62 -10 95 -9 100 -15 126 -27 119 -7 -5 -8 -1 0 11 12 22 8 27
-68 105 -30 30 -71 63 -92 73 -38 18 -109 22 -145 7z"/>
<path d="M5469 7253 c-13 -16 -12 -17 4 -4 9 7 17 15 17 17 0 8 -8 3 -21 -13z"/>
<path d="M6961 7204 c0 -11 3 -14 6 -6 3 7 2 16 -1 19 -3 4 -6 -2 -5 -13z"/>
<path d="M6941 7074 c0 -11 3 -14 6 -6 3 7 2 16 -1 19 -3 4 -6 -2 -5 -13z"/>
<path d="M6932 7010 c0 -14 2 -19 5 -12 2 6 2 18 0 25 -3 6 -5 1 -5 -13z"/>
<path d="M6922 6900 c0 -19 2 -27 5 -17 2 9 2 25 0 35 -3 9 -5 1 -5 -18z"/>
<path d="M6912 6835 c0 -16 2 -22 5 -12 2 9 2 23 0 30 -3 6 -5 -1 -5 -18z"/>
<path d="M6903 6725 c0 -22 2 -30 4 -17 2 12 2 30 0 40 -3 9 -5 -1 -4 -23z"/>
<path d="M6893 6645 c0 -22 2 -30 4 -17 2 12 2 30 0 40 -3 9 -5 -1 -4 -23z"/>
<path d="M6883 6550 c0 -25 2 -35 4 -22 2 12 2 32 0 45 -2 12 -4 2 -4 -23z"/>
<path d="M6873 6460 c0 -25 2 -35 4 -22 2 12 2 32 0 45 -2 12 -4 2 -4 -23z"/>
<path d="M2749 6431 c-34 -35 -36 -59 -8 -95 22 -28 44 -32 82 -15 49 22 54
80 12 122 -24 25 -53 21 -86 -12z"/>
<path d="M8246 6438 c3 -13 51 -111 105 -218 107 -213 155 -343 193 -521 32
-146 66 -357 66 -406 0 -21 -18 -94 -40 -164 -33 -104 -46 -132 -71 -153 -17
-14 -25 -26 -18 -26 7 0 44 -20 83 -44 108 -66 271 -156 283 -156 6 0 13 8 15
18 7 26 2 118 -7 132 -6 9 -4 11 4 5 10 -6 11 -3 1 15 -7 12 -9 35 -6 51 4 20
2 27 -7 23 -7 -2 -13 3 -14 13 -5 50 -9 63 -25 75 -17 14 -36 73 -63 203 -10
44 -31 125 -47 180 -16 55 -38 135 -49 178 -23 89 -108 326 -145 403 -13 28
-24 56 -24 62 0 7 -4 12 -10 12 -5 0 -10 9 -10 21 0 11 -4 17 -10 14 -5 -3
-10 3 -10 14 0 11 -4 22 -9 25 -14 9 -50 87 -53 115 -2 14 -11 33 -21 43 -25
26 -11 42 18 21 12 -10 21 -21 18 -25 -2 -4 2 -5 10 -2 8 3 31 -14 55 -40 23
-25 42 -42 42 -38 0 18 -112 118 -172 154 -74 44 -92 48 -82 16z"/>
<path d="M2177 6230 c-5 -19 9 -90 18 -90 2 0 2 25 2 55 -2 56 -10 71 -20 35z"/>
<path d="M4176 6213 c-6 -14 -5 -15 5 -6 7 7 10 15 7 18 -3 3 -9 -2 -12 -12z"/>
<path d="M2180 6121 c0 -6 5 -13 10 -16 6 -3 10 1 10 9 0 9 -4 16 -10 16 -5 0
-10 -4 -10 -9z"/>
<path d="M8365 6065 c9 -30 65 -224 78 -270 13 -48 32 -74 21 -30 -14 62 -86
291 -96 305 -7 12 -8 11 -3 -5z"/>
<path d="M6760 5974 c-15 -38 -12 -42 10 -14 22 28 25 40 10 40 -6 0 -15 -12
-20 -26z"/>
<path d="M3649 5975 c-19 -7 -55 -23 -78 -35 -59 -30 -179 -74 -341 -125 -74
-23 -171 -56 -215 -73 -406 -154 -492 -182 -562 -182 -48 0 -40 -18 10 -25 60
-9 147 9 322 65 151 49 318 98 475 140 155 41 274 82 350 120 87 44 157 101
146 118 -9 15 -61 14 -107 -3z"/>
<path d="M6834 5962 c-5 -4 -22 -24 -38 -45 -17 -23 -34 -36 -42 -33 -17 7
-28 -30 -28 -99 -1 -48 0 -50 44 -74 135 -73 597 -382 739 -493 40 -32 77 -55
82 -52 5 3 9 1 9 -4 0 -6 6 -12 14 -15 12 -5 14 12 14 91 0 60 -5 105 -13 117
-11 18 -10 20 13 22 18 1 21 -1 11 -8 -9 -6 -10 -9 -2 -9 28 0 21 20 -14 41
-21 13 -42 27 -48 31 -5 4 -32 24 -60 45 -83 61 -174 132 -300 233 -66 54
-145 114 -175 135 -30 21 -68 48 -85 60 -46 34 -110 64 -121 57z"/>
<path d="M6982 5912 c18 -16 67 -53 108 -84 41 -30 119 -91 173 -136 53 -45
100 -82 103 -82 17 0 -221 199 -342 286 -70 50 -91 58 -42 16z"/>
<path d="M8693 5920 c3 -8 22 -67 42 -130 50 -154 47 -147 52 -133 5 13 -75
254 -89 268 -7 7 -9 5 -5 -5z"/>
<path d="M8792 5610 c0 -14 2 -19 5 -12 2 6 2 18 0 25 -3 6 -5 1 -5 -13z"/>
<path d="M7405 5580 c10 -11 20 -20 23 -20 3 0 -3 9 -13 20 -10 11 -20 20 -23
20 -3 0 3 -9 13 -20z"/>
<path d="M8265 5580 c3 -5 11 -10 16 -10 6 0 7 5 4 10 -3 6 -11 10 -16 10 -6
0 -7 -4 -4 -10z"/>
<path d="M8801 5570 c0 -8 4 -24 9 -35 l9 -20 0 20 c0 11 -4 27 -9 35 -9 13
-10 13 -9 0z"/>
<path d="M7677 5358 c7 -8 9 -19 5 -23 -4 -5 -2 -5 5 -1 7 4 24 -1 38 -10 14
-9 25 -14 25 -11 0 2 -19 17 -42 32 -24 16 -37 22 -31 13z"/>
<path d="M8841 5294 c0 -43 4 -101 9 -129 4 -32 6 -4 3 75 -5 140 -13 177 -12
54z"/>
<path d="M8004 5182 c5 -8 -3 -12 -23 -12 l-30 0 -3 -145 -3 -146 95 -72 c52
-39 139 -116 193 -171 54 -55 102 -95 106 -90 10 11 25 71 61 249 16 77 30
146 32 153 2 9 -52 42 -142 89 -168 87 -214 108 -205 94 3 -6 1 -11 -4 -11 -6
0 -11 3 -11 8 0 4 -14 13 -30 20 -17 8 -28 18 -25 22 3 5 0 12 -6 16 -8 4 -9
3 -5 -4z"/>
<path d="M8037 5159 c7 -7 15 -10 18 -7 3 3 -2 9 -12 12 -14 6 -15 5 -6 -5z"/>
<path d="M4195 5013 c-18 -14 -18 -15 -2 -9 10 3 23 6 28 6 5 0 9 5 9 10 0 14
-12 12 -35 -7z"/>
<path d="M7883 4965 c0 -27 2 -38 4 -22 2 15 2 37 0 50 -2 12 -4 0 -4 -28z"/>
<path d="M4130 4974 l-25 -15 25 7 c14 4 36 7 50 6 23 -1 23 0 5 8 -27 11 -26
12 -55 -6z"/>
<path d="M8451 4813 c-6 -32 -25 -118 -42 -191 l-31 -132 49 -43 c118 -103
130 -119 143 -184 10 -49 18 -66 39 -79 14 -10 55 -45 90 -78 35 -34 62 -56
58 -50 -3 6 7 64 23 130 34 138 39 185 7 72 -12 -42 -26 -80 -30 -85 -5 -4
-16 -24 -24 -43 -27 -62 -27 -11 1 59 14 36 35 96 46 133 23 74 38 95 33 45
-2 -18 7 9 21 59 13 50 26 120 30 157 4 37 8 69 9 73 1 3 -30 18 -69 33 -39
15 -127 62 -196 104 -69 43 -130 77 -136 77 -6 0 -15 -26 -21 -57z m312 -663
c-3 -12 -8 -19 -11 -16 -5 6 5 36 12 36 2 0 2 -9 -1 -20z"/>
<path d="M8862 4388 c-18 -57 -41 -146 -51 -198 -34 -172 -36 -153 17 -197 68
-57 75 -59 52 -15 -23 43 -23 36 5 262 22 190 25 224 16 238 -5 8 -19 -26 -39
-90z"/>
<path d="M3668 4083 c7 -3 16 -2 19 1 4 3 -2 6 -13 5 -11 0 -14 -3 -6 -6z"/>
<path d="M8921 3815 c-2 -31 -55 -116 -113 -181 -31 -34 -40 -48 -22 -34 69
56 154 189 141 222 -3 7 -6 4 -6 -7z"/>
<path d="M3059 3758 c-7 -25 -5 -38 8 -38 12 0 13 3 4 13 -6 8 -8 17 -4 20 3
4 3 7 0 7 -4 0 -7 -1 -8 -2z"/>
<path d="M8485 3510 c-3 -6 1 -7 9 -4 18 7 21 14 7 14 -6 0 -13 -4 -16 -10z"/>
<path d="M4781 2891 c-8 -6 -9 -11 -3 -15 6 -3 14 -1 17 5 9 14 2 20 -14 10z"/>
<path d="M6920 2816 c0 -7 40 -14 44 -7 3 4 -6 8 -20 9 -13 1 -24 0 -24 -2z"/>
<path d="M6150 2355 c0 -8 5 -15 11 -15 8 0 7 -6 -2 -17 -8 -9 -9 -14 -3 -10
7 4 14 -5 18 -24 5 -26 8 -29 25 -19 11 5 22 6 25 1 3 -5 14 -11 25 -14 15 -3
18 -1 14 11 -5 11 -2 14 10 9 47 -19 50 -19 27 0 -44 35 -132 93 -141 93 -5 0
-9 -7 -9 -15z"/>
<path d="M5510 2336 c0 -2 8 -10 18 -17 15 -13 16 -12 3 4 -13 16 -21 21 -21
13z"/>
<path d="M3395 2224 c-11 -8 -19 -22 -17 -31 2 -9 -2 -20 -10 -24 -10 -7 -8
-9 5 -9 32 0 12 -25 -23 -28 l-33 -3 6 -152 c5 -141 19 -217 39 -217 4 0 8 -6
8 -13 0 -7 8 -29 19 -49 13 -26 15 -39 7 -43 -6 -3 9 -3 34 -1 39 4 51 12 91
55 31 33 56 75 75 123 24 63 40 84 110 153 72 70 104 110 104 129 0 3 -18 6
-40 6 -44 0 -176 43 -255 83 -69 35 -96 40 -120 21z"/>
<path d="M6064 2209 c-43 -47 -98 -69 -174 -69 -36 0 -81 5 -100 11 -19 6 -54
12 -77 13 -37 2 -43 -1 -43 -17 0 -16 -3 -17 -15 -7 -9 8 -15 9 -15 2 0 -12
19 -26 35 -27 23 0 126 -68 145 -96 12 -16 19 -29 16 -29 -3 0 10 -17 29 -37
19 -20 32 -41 29 -45 -3 -4 20 -8 51 -8 48 0 60 4 81 27 13 14 29 44 36 67 18
65 18 65 136 61 61 -2 92 -1 72 3 l-35 8 45 7 c48 8 120 64 120 92 0 8 5 15
11 15 6 0 9 5 7 12 -7 19 -154 47 -244 48 -77 0 -81 -1 -110 -31z"/>
<path d="M6458 2193 c7 -3 16 -2 19 1 4 3 -2 6 -13 5 -11 0 -14 -3 -6 -6z"/>
<path d="M5539 2171 c-2 -14 -4 -22 -12 -41 -4 -8 -8 -26 -10 -40 -3 -29 -20
-62 -43 -85 -10 -9 -13 -20 -8 -25 31 -29 225 -63 300 -53 l42 5 -88 88 c-47
48 -92 102 -100 119 -7 17 -18 31 -24 31 -6 0 -21 3 -33 6 -14 4 -24 2 -24 -5z"/>
<path d="M2977 1923 c-4 -6 -3 -14 3 -18 5 -3 7 -19 3 -35 -4 -22 -1 -31 12
-36 13 -5 14 -9 4 -15 -19 -12 35 -30 61 -21 19 7 19 9 -12 55 -18 26 -38 47
-45 47 -6 0 -13 8 -15 18 -2 12 -6 13 -11 5z"/>
</g>
</svg>
